<?xml version="1.0" encoding="utf-8"?>
<!-- Generator: Adobe Illustrator 21.0.0, SVG Export Plug-In . SVG Version: 6.00 Build 0)  -->
<svg version="1.1" id="Layer_1" xmlns="http://www.w3.org/2000/svg" xmlns:xlink="http://www.w3.org/1999/xlink" x="0px" y="0px"
	 viewBox="0 0 300 245.8" style="enable-background:new 0 0 300 245.8;" xml:space="preserve">
<style type="text/css">
	.st0{fill:#FFFFFF;}
	.st1{fill:#982CFF;}
	.st2{fill:none;}
</style>
<g>
	<g>
		<path class="st0" d="M102.1,146.2l4.2,1.2l2.5,17.5l-4.6-1.2l-0.4-3.1l-6-1.6l-1.9,2.5l-4.5-1.2L102.1,146.2z M103.4,156.9
			l-0.5-4.9l-2.9,4L103.4,156.9z"/>
		<path class="st0" d="M114.5,149.7l8,2.1c1,0.3,1.8,0.6,2.4,1.1c0.6,0.4,1.2,0.9,1.4,1.5c0.3,0.4,0.4,0.8,0.4,1.3
			c0.1,0.4,0,1-0.1,1.5l0,0c-0.3,0.9-0.6,1.6-1.2,2c-0.6,0.4-1.2,0.7-2,0.8c0.9,0.5,1.5,1.2,2,2c0.4,0.7,0.4,1.6,0.2,2.7l0,0
			c-0.4,1.3-1.2,2.3-2.4,2.8c-1.2,0.4-2.8,0.4-4.7,0l-8.1-2.1L114.5,149.7z M118.9,163.8c0.7,0.2,1.2,0.2,1.6,0
			c0.4-0.2,0.7-0.4,0.8-0.9v-0.1c0.1-0.4,0-0.8-0.3-1.2s-0.8-0.6-1.5-0.8l-3.3-0.9l-0.8,2.8L118.9,163.8z M119.8,157.7
			c0.7,0.2,1.2,0.2,1.6,0.1c0.4-0.1,0.7-0.4,0.8-0.9l0,0c0.1-0.4,0-0.8-0.3-1.2c-0.3-0.4-0.7-0.5-1.4-0.7l-2.8-0.7L117,157
			L119.8,157.7z"/>
		<path class="st0" d="M134.1,171.9c-1.2-0.4-2.2-0.8-3.2-1.5c-0.9-0.7-1.7-1.5-2.2-2.4c-0.5-0.9-0.9-2-1.1-3
			c-0.2-1.1-0.1-2.2,0.2-3.3l0,0c0.3-1.2,0.8-2.1,1.5-3c0.7-0.9,1.5-1.6,2.5-2.1c1-0.5,2-0.9,3.1-1.1c1.2-0.2,2.3-0.1,3.6,0.3
			c1.2,0.4,2.2,0.8,3.2,1.5c0.9,0.7,1.7,1.5,2.2,2.4c0.5,0.9,0.9,2,1.1,3c0.2,1.1,0.1,2.2-0.2,3.3l0,0c-0.3,1.2-0.8,2.1-1.5,3
			c-0.7,0.9-1.5,1.6-2.5,2.1s-2,0.9-3.1,1.1C136.5,172.4,135.3,172.3,134.1,171.9z M135.1,168c0.6,0.2,1.2,0.2,1.7,0.1
			s1.1-0.3,1.5-0.5s0.8-0.6,1.2-1.2c0.4-0.4,0.5-1,0.7-1.5l0,0c0.2-0.5,0.2-1.2,0.2-1.7c0-0.5-0.2-1.1-0.4-1.6
			c-0.3-0.4-0.6-0.9-1.1-1.2c-0.4-0.4-1-0.6-1.5-0.8c-0.6-0.2-1.2-0.2-1.7-0.1c-0.5,0.1-1.1,0.3-1.5,0.5c-0.4,0.3-0.8,0.6-1.2,1.2
			c-0.4,0.4-0.5,1-0.7,1.5l0,0c-0.2,0.5-0.2,1.2-0.2,1.7c0.1,0.5,0.2,1.1,0.4,1.6c0.3,0.5,0.6,0.9,1,1.2
			C134.1,167.6,134.6,167.9,135.1,168z"/>
		<path class="st0" d="M151.9,176.6c-1.2-0.3-2-0.7-2.9-1.2c-0.8-0.5-1.4-1.2-2-2c-0.4-0.7-0.7-1.6-0.9-2.6s0-2.1,0.4-3.3l2.3-8.8
			l4.4,1.2l-2.3,8.7c-0.3,1.2-0.3,2,0.1,2.8s1,1.2,1.9,1.3s1.6,0.2,2.3-0.3c0.6-0.4,1.2-1.2,1.4-2.2l2.3-8.8l4.4,1.2l-2.3,8.6
			c-0.4,1.2-0.8,2.3-1.4,3.1c-0.6,0.8-1.2,1.4-2,1.9c-0.8,0.4-1.7,0.6-2.7,0.7C154,177.1,152.9,177,151.9,176.6z"/>
		<path class="st0" d="M168.8,168.2l-4.7-1.2l1-3.8l13.7,3.6l-1,3.8l-4.7-1.2l-3.1,11.8l-4.4-1.2L168.8,168.2z"/>
	</g>
	<g>
		<path class="st1" d="M188.9,45.1l-90.7,91.5l28.9,7.6l24.7-24.9l9.2,33.9l8.7,2.3c5.7-18.2,22.9-30,41.3-29.3L188.9,45.1z"/>
		<polygon class="st0" points="127,144.2 161,153.2 151.8,119.3 		"/>
	</g>
	<circle class="st0" cx="155.3" cy="106.8" r="7.4"/>
	<path class="st2" d="M210.9,126.3l-22.1-81l-90.7,91.5l71.5,18.9C175.4,137.3,192.5,125.6,210.9,126.3z"/>
	<polygon class="st0" points="175.5,98.4 208.2,65.5 220.3,110.2 	"/>
</g>
</svg>
