<?xml version="1.0" encoding="utf-8"?>
<!-- Generator: Adobe Illustrator 21.0.0, SVG Export Plug-In . SVG Version: 6.00 Build 0)  -->
<svg version="1.1" id="Layer_1" xmlns="http://www.w3.org/2000/svg" xmlns:xlink="http://www.w3.org/1999/xlink" x="0px" y="0px"
	 viewBox="0 0 297 257.8" style="enable-background:new 0 0 297 257.8;" xml:space="preserve">
<style type="text/css">
	.st0{fill:#FF00C3;}
	.st1{fill:#FFFFFF;}
</style>
<g>
	<g>
		<path class="st0" d="M183.7,45.1L81.8,147.9l33.1,8.7l-6.8-24.9l36.5,9.6l-18.2,18.4l35.8,9.4c6.3-20.5,25.6-33.7,46.3-32.9
			L183.7,45.1z"/>
		<polygon class="st1" points="108.2,131.8 114.9,156.7 126.4,159.7 144.7,141.3 		"/>
	</g>
	<g>
		<g>
			<path class="st1" d="M82.5,176.7c-1.3-0.3-2.4-0.9-3.4-1.6s-1.8-1.6-2.4-2.7s-1-2.2-1.2-3.4c-0.2-1.2-0.1-2.5,0.3-3.8l0,0
				c0.3-1.3,0.9-2.4,1.7-3.4s1.7-1.8,2.7-2.4s2.2-1,3.5-1.2s2.6-0.1,3.9,0.3c0.9,0.2,1.7,0.6,2.4,0.9s1.3,0.8,1.8,1.3
				c0.5,0.5,1,1,1.3,1.6c0.4,0.6,0.7,1.2,0.9,1.8l-4.4,1.8c-0.3-0.8-0.7-1.4-1.2-2c-0.5-0.5-1.2-0.9-2-1.1c-0.6-0.2-1.2-0.2-1.8-0.1
				s-1.1,0.3-1.6,0.6c-0.5,0.3-0.9,0.7-1.3,1.2c-0.4,0.5-0.6,1.1-0.8,1.7l0,0.1c-0.2,0.7-0.2,1.3-0.2,1.9c0.1,0.6,0.2,1.2,0.5,1.7
				s0.6,1,1,1.3c0.4,0.4,1,0.7,1.6,0.8c0.5,0.1,0.9,0.2,1.3,0.2c0.4,0,0.8-0.1,1.1-0.2c0.4-0.1,0.7-0.3,1.1-0.4
				c0.3-0.2,0.7-0.4,1-0.6l3,3.6c-0.6,0.5-1.2,0.9-1.8,1.2c-0.6,0.4-1.3,0.6-2,0.8c-0.7,0.2-1.5,0.3-2.3,0.3
				C84.3,177.1,83.4,177,82.5,176.7z"/>
			<path class="st1" d="M101.2,181.8c-1.4-0.4-2.5-0.9-3.6-1.7s-1.8-1.7-2.5-2.8c-0.6-1-1-2.2-1.2-3.4c-0.2-1.2-0.1-2.5,0.2-3.7l0,0
				c0.3-1.3,0.9-2.4,1.7-3.4c0.8-1,1.7-1.8,2.8-2.4s2.3-1,3.5-1.1c1.3-0.2,2.6-0.1,4,0.3c1.4,0.4,2.5,0.9,3.6,1.7s1.8,1.7,2.5,2.8
				c0.6,1,1,2.2,1.2,3.4c0.2,1.2,0.1,2.5-0.2,3.7l0,0.1c-0.3,1.3-0.9,2.4-1.7,3.4c-0.8,1-1.7,1.8-2.8,2.4s-2.3,1-3.5,1.1
				S102.5,182.2,101.2,181.8z M102.4,177.4c0.7,0.2,1.3,0.2,1.9,0.1c0.6-0.1,1.2-0.3,1.7-0.6s0.9-0.7,1.3-1.2s0.6-1.1,0.8-1.7l0,0
				c0.2-0.6,0.2-1.3,0.2-1.9s-0.2-1.2-0.5-1.8s-0.7-1-1.2-1.4s-1.1-0.7-1.7-0.9s-1.3-0.2-1.9-0.1s-1.2,0.3-1.7,0.6
				c-0.5,0.3-0.9,0.7-1.3,1.2c-0.4,0.5-0.6,1.1-0.8,1.7l0,0.1c-0.2,0.6-0.2,1.3-0.2,1.9c0.1,0.6,0.2,1.2,0.5,1.8
				c0.3,0.5,0.7,1,1.1,1.4S101.7,177.2,102.4,177.4z"/>
			<path class="st1" d="M118.1,167.1l4.6,1.2l4.7,11.2l2.5-9.3l4.8,1.3l-4.8,17.6l-4.3-1.2l-4.9-11.7l-2.6,9.6l-4.8-1.3L118.1,167.1
				z"/>
			<path class="st1" d="M140.9,177.9l-5.3-1.4l1.2-4.3l15.4,4.2l-1.2,4.3l-5.3-1.4l-3.6,13.3l-4.9-1.3L140.9,177.9z"/>
			<path class="st1" d="M154.3,176.9l14.1,3.8l-1.1,4.1l-9.3-2.5l-0.7,2.7l8.4,2.3l-1,3.8l-8.4-2.3l-0.8,2.8l9.4,2.6l-1.1,4.1
				l-14.2-3.8L154.3,176.9z"/>
			<path class="st1" d="M173.1,201.2c-1.6-0.4-3-1.1-4.3-1.9s-2.3-1.9-3.2-3.2l3.6-2.5c1.4,1.9,3.1,3.1,5.1,3.6
				c0.7,0.2,1.2,0.2,1.6,0.1c0.4-0.1,0.7-0.4,0.8-0.8l0,0c0-0.2,0.1-0.4,0-0.5c0-0.2-0.2-0.3-0.4-0.5c-0.2-0.2-0.5-0.4-0.8-0.6
				c-0.3-0.2-0.8-0.5-1.4-0.8c-0.9-0.5-1.7-0.9-2.4-1.4c-0.7-0.5-1.3-1-1.8-1.6c-0.5-0.6-0.8-1.2-1-1.9c-0.2-0.7-0.1-1.5,0.1-2.4
				l0,0c0.2-0.8,0.6-1.5,1.1-2.1c0.5-0.6,1.1-1.1,1.8-1.4s1.5-0.5,2.5-0.6c0.9,0,1.9,0.1,2.9,0.4c1.5,0.4,2.8,1,3.9,1.7
				c1.1,0.7,2,1.6,2.7,2.6l-3.4,2.8c-0.6-0.8-1.4-1.4-2.1-2c-0.8-0.5-1.5-0.9-2.3-1.1c-0.6-0.2-1.1-0.2-1.4,0
				c-0.4,0.1-0.6,0.4-0.7,0.7l0,0c-0.1,0.2-0.1,0.4,0,0.6c0.1,0.2,0.2,0.4,0.4,0.5c0.2,0.2,0.5,0.4,0.8,0.6c0.4,0.2,0.8,0.5,1.4,0.8
				c0.9,0.5,1.8,1,2.5,1.5s1.3,1.1,1.8,1.6c0.5,0.6,0.8,1.2,0.9,1.9c0.1,0.7,0.1,1.4-0.1,2.2l0,0c-0.2,0.9-0.6,1.7-1.2,2.3
				c-0.5,0.6-1.2,1.1-1.9,1.4s-1.6,0.5-2.5,0.5C175.2,201.6,174.2,201.5,173.1,201.2z"/>
			<path class="st1" d="M190.6,191.3l-5.3-1.4l1.2-4.3l15.4,4.2l-1.2,4.3l-5.3-1.4l-3.6,13.3l-4.9-1.3L190.6,191.3z"/>
			<path class="st1" d="M206.1,210.1c-1.6-0.4-3-1.1-4.3-1.9s-2.3-1.9-3.2-3.2l3.6-2.5c1.4,1.9,3.1,3.1,5.1,3.6
				c0.7,0.2,1.2,0.2,1.6,0.1c0.4-0.1,0.7-0.4,0.8-0.8l0,0c0-0.2,0.1-0.4,0-0.5c0-0.2-0.2-0.3-0.4-0.5c-0.2-0.2-0.5-0.4-0.8-0.6
				c-0.3-0.2-0.8-0.5-1.4-0.8c-0.9-0.5-1.7-0.9-2.4-1.4c-0.7-0.5-1.3-1-1.8-1.6c-0.5-0.6-0.8-1.2-1-1.9c-0.2-0.7-0.1-1.5,0.1-2.4
				l0,0c0.2-0.8,0.6-1.5,1.1-2.1c0.5-0.6,1.1-1.1,1.8-1.4s1.5-0.5,2.5-0.6c0.9,0,1.9,0.1,2.9,0.4c1.5,0.4,2.8,1,3.9,1.7
				c1.1,0.7,2,1.6,2.7,2.6l-3.4,2.8c-0.6-0.8-1.4-1.4-2.1-2c-0.8-0.5-1.5-0.9-2.3-1.1c-0.6-0.2-1.1-0.2-1.4,0
				c-0.4,0.1-0.6,0.4-0.7,0.7l0,0c-0.1,0.2-0.1,0.4,0,0.6c0.1,0.2,0.2,0.4,0.4,0.5c0.2,0.2,0.5,0.4,0.8,0.6s0.8,0.5,1.4,0.8
				c0.9,0.5,1.8,1,2.5,1.5s1.3,1.1,1.8,1.6c0.5,0.6,0.8,1.2,0.9,1.9c0.1,0.7,0.1,1.4-0.1,2.2l0,0.1c-0.2,0.9-0.6,1.7-1.2,2.3
				c-0.5,0.6-1.2,1.1-1.9,1.4s-1.6,0.5-2.5,0.5C208.2,210.5,207.1,210.4,206.1,210.1z"/>
		</g>
	</g>
	<circle class="st1" cx="129.1" cy="123.3" r="8.9"/>
	<polygon class="st1" points="175.9,126.8 161.2,141.6 155.8,121.5 	"/>
	<circle class="st1" cx="167.4" cy="116.9" r="4.9"/>
	<polygon class="st1" points="168.2,102.9 210.8,60 226.6,118.2 	"/>
</g>
</svg>
