<?xml version="1.0" encoding="utf-8"?>
<!-- Generator: Adobe Illustrator 21.0.0, SVG Export Plug-In . SVG Version: 6.00 Build 0)  -->
<svg version="1.1" id="Layer_1" xmlns="http://www.w3.org/2000/svg" xmlns:xlink="http://www.w3.org/1999/xlink" x="0px" y="0px"
	 viewBox="0 0 189.9 174.2" style="enable-background:new 0 0 189.9 174.2;" xml:space="preserve">
<style type="text/css">
	.st0{fill:#17FFDD;}
	.st1{fill:#FFFFFF;}
</style>
<g>
	<g>
		<path class="st0" d="M73.2,106.6c-2.8-1.4-5.9-2.1-9-2.1c-2.1,0-4.3,0.3-6.4,1c-5.1,1.7-9.2,5.3-11.6,10.1c-0.5,1-0.8,1.9-1.2,2.9
			l38.7,10.2C85.7,119.9,81.5,110.7,73.2,106.6z"/>
		<path class="st0" d="M111.5,68.3l24.3-24.4l-9.1-33.3L25,113.1l15.3,4c0.4-1.3,0.9-2.6,1.5-3.9c3-6,8.1-10.5,14.5-12.6
			c2.9-1,5.9-1.4,8.8-1.3c-2.7-3.8-3.3-9-1.1-13.5c3.3-6.5,11.2-9.1,17.7-5.9c6.5,3.3,9.1,11.2,5.9,17.7c-1.7,3.5-4.8,5.8-8.3,6.8
			c7.8,5.9,11.5,15.9,9.4,25.4l16.6,4.4c6.3-20.5,25.6-33.7,46.2-32.9L144.8,77L111.5,68.3z"/>
		<polygon class="st1" points="169.9,83.5 154.1,25.4 135.8,43.8 144.8,77 		"/>
		<polygon class="st1" points="144.8,77 135.8,43.8 111.5,68.3 		"/>
		<path class="st1" d="M79.3,104.5c3.5-1,6.6-3.3,8.3-6.8c3.3-6.5,0.6-14.4-5.9-17.7c-6.5-3.3-14.4-0.6-17.7,5.9
			c-2.3,4.5-1.7,9.7,1.1,13.5c-3-0.1-5.9,0.3-8.8,1.3c-6.4,2.1-11.5,6.6-14.5,12.6c-0.6,1.3-1.1,2.6-1.5,3.9l4.9,1.3
			c0.3-1,0.7-2,1.2-2.9c2.4-4.8,6.5-8.4,11.6-10.1c2.1-0.7,4.2-1,6.4-1c3.1,0,6.1,0.7,9,2.1c8.3,4.2,12.5,13.4,10.6,22.1l4.8,1.3
			C90.8,120.4,87.2,110.4,79.3,104.5z"/>
	</g>
	<g>
		<path class="st1" d="M27.4,141.7c-1.3-0.3-2.4-0.9-3.4-1.6c-1-0.7-1.8-1.6-2.4-2.7s-1-2.2-1.2-3.4c-0.2-1.2-0.1-2.5,0.3-3.8l0-0.1
			c0.3-1.3,0.9-2.4,1.7-3.4s1.7-1.8,2.7-2.4c1-0.6,2.2-1,3.4-1.2c1.3-0.2,2.6-0.1,3.9,0.3c0.9,0.2,1.7,0.6,2.4,0.9
			c0.7,0.4,1.3,0.8,1.8,1.3c0.5,0.5,1,1,1.3,1.6c0.4,0.6,0.7,1.2,0.9,1.8l-4.4,1.9c-0.3-0.8-0.7-1.4-1.3-2c-0.5-0.5-1.2-0.9-2-1.1
			c-0.6-0.2-1.2-0.2-1.8-0.1c-0.6,0.1-1.1,0.3-1.6,0.6c-0.5,0.3-0.9,0.7-1.3,1.2s-0.6,1.1-0.8,1.7l0,0c-0.2,0.7-0.2,1.3-0.2,1.9
			c0.1,0.6,0.2,1.2,0.5,1.7c0.3,0.5,0.6,1,1.1,1.3s1,0.7,1.6,0.8c0.5,0.1,0.9,0.2,1.3,0.2c0.4,0,0.8-0.1,1.1-0.2
			c0.4-0.1,0.7-0.3,1.1-0.4c0.3-0.2,0.7-0.4,1-0.6l3,3.6c-0.6,0.5-1.2,0.9-1.8,1.2s-1.3,0.6-2,0.8c-0.7,0.2-1.5,0.3-2.3,0.3
			C29.2,142.1,28.3,141.9,27.4,141.7z"/>
		<path class="st1" d="M46.1,146.7c-1.4-0.4-2.5-0.9-3.6-1.7c-1-0.8-1.8-1.7-2.5-2.7c-0.6-1-1-2.2-1.2-3.4c-0.2-1.2-0.1-2.5,0.2-3.7
			l0-0.1c0.3-1.3,0.9-2.4,1.7-3.4s1.7-1.8,2.8-2.4c1.1-0.6,2.3-1,3.5-1.1c1.3-0.2,2.6-0.1,4,0.3c1.4,0.4,2.5,0.9,3.6,1.7
			c1,0.8,1.8,1.7,2.5,2.7c0.6,1,1,2.2,1.2,3.4c0.2,1.2,0.1,2.5-0.2,3.7l0,0c-0.3,1.3-0.9,2.4-1.7,3.4c-0.8,1-1.7,1.8-2.8,2.4
			c-1.1,0.6-2.3,1-3.5,1.1C48.7,147.2,47.4,147.1,46.1,146.7z M47.3,142.3c0.7,0.2,1.3,0.2,1.9,0.1c0.6-0.1,1.2-0.3,1.7-0.6
			s0.9-0.7,1.3-1.3s0.6-1.1,0.8-1.7l0-0.1c0.2-0.6,0.2-1.3,0.2-1.9s-0.2-1.2-0.5-1.8c-0.3-0.5-0.7-1-1.2-1.4
			c-0.5-0.4-1.1-0.7-1.7-0.9c-0.7-0.2-1.3-0.2-1.9-0.1c-0.6,0.1-1.2,0.3-1.7,0.6c-0.5,0.3-0.9,0.7-1.3,1.3s-0.6,1.1-0.8,1.7l0,0
			c-0.2,0.6-0.2,1.3-0.2,1.9c0.1,0.6,0.2,1.2,0.5,1.8s0.7,1,1.1,1.4C46,141.8,46.6,142.1,47.3,142.3z"/>
		<path class="st1" d="M62.9,132l4.6,1.2l4.8,11.2l2.5-9.3l4.8,1.3L74.8,154l-4.3-1.1l-4.9-11.7l-2.6,9.6l-4.8-1.3L62.9,132z"/>
		<path class="st1" d="M85.8,142.7l-5.3-1.4l1.1-4.3l15.4,4.1l-1.1,4.3l-5.3-1.4l-3.6,13.3l-4.9-1.3L85.8,142.7z"/>
		<path class="st1" d="M105.3,143.3l4.7,1.3l2.7,19.7l-5.2-1.4l-0.4-3.5l-6.8-1.8l-2.1,2.8l-5.1-1.4L105.3,143.3z M106.7,155.2
			l-0.6-5.5l-3.3,4.5L106.7,155.2z"/>
		<path class="st1" d="M122.8,167.3c-1.3-0.3-2.4-0.9-3.4-1.6s-1.8-1.6-2.4-2.7s-1-2.2-1.2-3.4c-0.2-1.2-0.1-2.5,0.3-3.8l0-0.1
			c0.3-1.3,0.9-2.4,1.7-3.4s1.7-1.8,2.7-2.4s2.2-1,3.4-1.2s2.6-0.1,3.9,0.3c0.9,0.2,1.7,0.6,2.4,0.9c0.7,0.4,1.3,0.8,1.8,1.3
			c0.5,0.5,1,1,1.3,1.6c0.4,0.6,0.7,1.2,0.9,1.8l-4.4,1.9c-0.3-0.8-0.7-1.4-1.3-2s-1.2-0.9-2-1.1c-0.6-0.2-1.2-0.2-1.8-0.1
			s-1.1,0.3-1.6,0.6c-0.5,0.3-0.9,0.7-1.3,1.2s-0.6,1.1-0.8,1.7l0,0.1c-0.2,0.7-0.2,1.3-0.2,1.9c0.1,0.6,0.2,1.2,0.5,1.7
			c0.3,0.5,0.6,1,1.1,1.3s1,0.7,1.6,0.8c0.5,0.1,0.9,0.2,1.3,0.2c0.4,0,0.8-0.1,1.1-0.2c0.4-0.1,0.7-0.3,1.1-0.4
			c0.3-0.2,0.7-0.4,1-0.6l3,3.6c-0.6,0.5-1.2,0.9-1.8,1.2s-1.3,0.6-2,0.8c-0.7,0.2-1.5,0.3-2.3,0.3
			C124.7,167.7,123.8,167.6,122.8,167.3z"/>
		<path class="st1" d="M140.7,157.5l-5.3-1.4l1.1-4.3l15.4,4.1l-1.1,4.3l-5.3-1.4l-3.6,13.3l-4.9-1.3L140.7,157.5z"/>
	</g>
</g>
</svg>
