<?xml version="1.0" encoding="utf-8"?>
<!-- Generator: Adobe Illustrator 21.0.0, SVG Export Plug-In . SVG Version: 6.00 Build 0)  -->
<svg version="1.1" id="Layer_1" xmlns="http://www.w3.org/2000/svg" xmlns:xlink="http://www.w3.org/1999/xlink" x="0px" y="0px"
	 viewBox="0 0 204 205.2" style="enable-background:new 0 0 204 205.2;" xml:space="preserve">
<style type="text/css">
	.st0{fill:#FFFFFF;}
	.st1{fill:#17FFDD;}
</style>
<g>
	<g>
		<g>
			<path class="st0" d="M27.3,123.7l14.1,3.8l-1.1,4.1l-9.3-2.5l-0.7,2.7l8.4,2.3l-1,3.8l-8.4-2.3l-0.8,2.8l9.4,2.6l-1.1,4.1
				l-14.2-3.8L27.3,123.7z"/>
			<path class="st0" d="M46.5,138.1L43,127.9l5.6,1.5l1.8,5.8l4.5-4.1l5.5,1.5l-8.1,7l3.6,10.6l-5.6-1.5l-1.9-6.2l-4.8,4.4l-5.5-1.5
				L46.5,138.1z"/>
			<path class="st0" d="M65.6,138.6l-5.3-1.4l1.2-4.3l15.4,4.2l-1.2,4.3l-5.3-1.4l-3.6,13.3l-4.9-1.3L65.6,138.6z"/>
			<path class="st0" d="M79,137.7l8.3,2.2c1.4,0.4,2.5,0.8,3.3,1.4s1.5,1.3,1.9,2c0.8,1.3,0.9,2.8,0.5,4.5l0,0
				c-0.4,1.4-1,2.4-1.9,3.1s-2,1.2-3.2,1.3l2.5,7.3l-5.6-1.5l-2.1-6.3l0,0l-2.1-0.6l-1.4,5.3l-4.9-1.3L79,137.7z M84.8,148.3
				c0.8,0.2,1.5,0.2,2.1,0c0.6-0.3,0.9-0.7,1.1-1.3l0,0c0.2-0.7,0.1-1.3-0.3-1.8s-1-0.8-1.8-1l-3.2-0.9l-1.1,4.2L84.8,148.3z"/>
			<path class="st0" d="M103.1,144l4.7,1.3l2.7,19.7l-5.2-1.4l-0.4-3.5l-6.8-1.8l-2.1,2.8l-5.1-1.4L103.1,144z M104.5,156l-0.6-5.5
				l-3.3,4.5L104.5,156z"/>
			<path class="st0" d="M119.1,167.7c-1.6-0.4-3-1.1-4.3-1.9s-2.3-1.9-3.2-3.2l3.6-2.5c1.4,1.9,3.1,3.1,5.1,3.6
				c0.7,0.2,1.2,0.2,1.6,0.1c0.4-0.1,0.7-0.4,0.8-0.8l0,0c0-0.2,0.1-0.4,0-0.5c0-0.2-0.2-0.3-0.4-0.5c-0.2-0.2-0.5-0.4-0.8-0.6
				c-0.3-0.2-0.8-0.5-1.4-0.8c-0.9-0.5-1.7-0.9-2.4-1.4c-0.7-0.5-1.3-1-1.8-1.6c-0.5-0.6-0.8-1.2-1-1.9c-0.2-0.7-0.1-1.5,0.1-2.4
				l0,0c0.2-0.8,0.6-1.5,1.1-2.1c0.5-0.6,1.1-1.1,1.8-1.4s1.5-0.5,2.5-0.6c0.9,0,1.9,0.1,2.9,0.4c1.5,0.4,2.8,1,3.9,1.7
				c1.1,0.7,2,1.6,2.7,2.6l-3.4,2.8c-0.6-0.8-1.4-1.4-2.1-2c-0.8-0.5-1.5-0.9-2.3-1.1c-0.6-0.2-1.1-0.2-1.4,0
				c-0.4,0.1-0.6,0.4-0.7,0.7l0,0c-0.1,0.2-0.1,0.4,0,0.6c0.1,0.2,0.2,0.4,0.4,0.5c0.2,0.2,0.5,0.4,0.8,0.6s0.8,0.5,1.4,0.8
				c0.9,0.5,1.8,1,2.5,1.5s1.3,1.1,1.8,1.6c0.5,0.6,0.8,1.2,0.9,1.9c0.1,0.7,0.1,1.4-0.1,2.2l0,0.1c-0.2,0.9-0.6,1.7-1.2,2.3
				c-0.5,0.6-1.2,1.1-1.9,1.4s-1.6,0.5-2.5,0.5C121.1,168.1,120.1,167.9,119.1,167.7z"/>
		</g>
	</g>
	<g>
		<path class="st1" d="M132.2,12.3L76.8,68.1c5,0.2,8.9,4.3,8.9,9.3c0,5.2-4.2,9.3-9.3,9.3c-5,0-9.1-3.9-9.3-8.9L55.3,89.8
			c4.9,0.3,8.8,4.4,8.8,9.3c0,5.2-4.2,9.3-9.3,9.3c-4.9,0-9-3.8-9.3-8.7l-15.2,15.3l37.8,10c-0.7-1.3-1.1-2.7-1.1-4.3
			c0-5.2,4.2-9.3,9.3-9.3s9.3,4.2,9.3,9.3c0,3.3-1.7,6.2-4.3,7.8l29.2,7.7c6.3-20.5,25.6-33.7,46.3-32.9L132.2,12.3z M76.4,108.5
			c-5.2,0-9.3-4.2-9.3-9.3c0-5.2,4.2-9.3,9.3-9.3s9.3,4.2,9.3,9.3C85.7,104.3,81.5,108.5,76.4,108.5z M98,108.5
			c-5.2,0-9.3-4.2-9.3-9.3c0-5.2,4.2-9.3,9.3-9.3s9.3,4.2,9.3,9.3C107.4,104.3,103.2,108.5,98,108.5z"/>
		<path class="st0" d="M54.7,108.5c5.2,0,9.3-4.2,9.3-9.3c0-5-3.9-9-8.8-9.3l-9.9,10C45.8,104.6,49.8,108.5,54.7,108.5z"/>
		<circle class="st0" cx="76.4" cy="99.1" r="9.3"/>
		<circle class="st0" cx="98" cy="99.1" r="9.3"/>
		<path class="st0" d="M76.4,86.8c5.2,0,9.3-4.2,9.3-9.3c0-5-4-9.1-8.9-9.3l-9.7,9.8C67.3,82.9,71.4,86.8,76.4,86.8z"/>
		<path class="st0" d="M85.7,120.8c0-5.2-4.2-9.3-9.3-9.3s-9.3,4.2-9.3,9.3c0,1.6,0.4,3,1.1,4.3l13.4,3.5
			C84,126.9,85.7,124,85.7,120.8z"/>
	</g>
	<polygon class="st0" points="116.7,70.1 159.3,27.2 175.1,85.4 	"/>
</g>
</svg>
