<svg xmlns="http://www.w3.org/2000/svg" viewBox="0 0 499.8 499.8"><defs><style>.cls-1{fill:#fff;}.cls-2{fill:#ff00c3;}</style></defs><title>Asset 4</title><g id="Layer_2" data-name="Layer 2"><g id="Layer_1-2" data-name="Layer 1"><path class="cls-1" d="M335.6,408.7l-7.9-.3.2-10.1,14-.2,8.9,2.4-12,44.6-12.1-3.2Z"/><path class="cls-1" d="M375.7,418.5,355.2,413l2.7-10.3,34.1,9.1-2.5,9.2-29,29.8L347,447.2Z"/><path class="cls-2" d="M273.7,110l-3.9-14.4-24.8,25,6.4,1.7A73.55,73.55,0,0,1,273.7,110Z"/><path class="cls-2" d="M346.1,272.4,338,242.6a73,73,0,0,1-28.9,11l-39.9-1.5Z"/><polygon class="cls-2" points="124.9 227.1 142.2 209.6 148.7 233.4 124.9 227.1"/><polygon class="cls-2" points="309.5 389.7 324.7 393.7 313.7 404.9 309.5 389.7"/><circle cx="1.4" cy="1.4" r="0.4"/><circle cx="1.4" cy="1.4" r="0.4"/><circle cx="2.4" cy="1.4" r="0.4"/><circle cx="0.4" cy="0.4" r="0.4"/><circle cx="499.4" cy="0.4" r="0.4"/><circle cx="499.4" cy="499.4" r="0.4"/><circle cx="0.4" cy="499.4" r="0.4"/></g></g></svg>