<svg xmlns="http://www.w3.org/2000/svg" viewBox="0 0 499.8 499.8"><defs><style>.cls-1{fill:#fff;}</style></defs><title>Asset 1</title><g id="Layer_2" data-name="Layer 2"><g id="Layer_1-2" data-name="Layer 1"><path class="cls-1" d="M77.4,327.6l9.4,2.5a9.74,9.74,0,0,1,2.9,1.2,5.81,5.81,0,0,1,1.7,1.8,4.42,4.42,0,0,1,.5,1.5,5.74,5.74,0,0,1-.1,1.8v.1a4.16,4.16,0,0,1-1.5,2.4,6.43,6.43,0,0,1-2.4,1,7.2,7.2,0,0,1,2.3,2.3,4.29,4.29,0,0,1,.2,3.2v.1a4.35,4.35,0,0,1-2.8,3.2,8.56,8.56,0,0,1-5.5,0l-9.5-2.5Zm6.2,9.5a4.24,4.24,0,0,0,1.9.1,1.3,1.3,0,0,0,.9-1v-.1a1.52,1.52,0,0,0-.3-1.3,3.07,3.07,0,0,0-1.6-.9l-3.3-.9-.9,3.2Zm-1.1,7.2a4.24,4.24,0,0,0,1.9.1c.5-.1.8-.5,1-1.1v-.1a1.74,1.74,0,0,0-.3-1.4,3.69,3.69,0,0,0-1.8-1l-3.9-1-.9,3.4Z"/><path class="cls-1" d="M96.2,332.6l14.8,4-1.2,4.3-9.8-2.6-.7,2.8,8.8,2.4-1.1,4-8.8-2.4-.8,2.9,9.9,2.6-1.2,4.3-14.9-4Z"/><path class="cls-1" d="M116,350.2l-3.9-13.4,5.8,1.6,2,7.7,5.6-5.7,5.7,1.5-10.1,9.6-1.9,7-5.1-1.4Z"/><path class="cls-1" d="M137,363.7a10.64,10.64,0,0,1-3.7-1.8,10.24,10.24,0,0,1-2.6-2.9,11.08,11.08,0,0,1-1.3-3.6,10.27,10.27,0,0,1,.2-3.9v-.1a10.37,10.37,0,0,1,1.7-3.5,9.89,9.89,0,0,1,2.9-2.5,11.49,11.49,0,0,1,3.7-1.2,9.63,9.63,0,0,1,4.1.3,10.64,10.64,0,0,1,3.7,1.8,10.24,10.24,0,0,1,2.6,2.9,11.08,11.08,0,0,1,1.3,3.6,10.27,10.27,0,0,1-.2,3.9v.1a10.37,10.37,0,0,1-1.7,3.5,9.89,9.89,0,0,1-2.9,2.5,11.49,11.49,0,0,1-3.7,1.2A14.45,14.45,0,0,1,137,363.7Zm1.3-4.6a4.58,4.58,0,0,0,2,.1,4,4,0,0,0,1.8-.7,5.71,5.71,0,0,0,1.4-1.3,5.08,5.08,0,0,0,.9-1.8v-.1a6.8,6.8,0,0,0,.2-2,4.78,4.78,0,0,0-.6-1.8,4.43,4.43,0,0,0-1.2-1.5,5.08,5.08,0,0,0-1.8-.9,4.58,4.58,0,0,0-2-.1,4.49,4.49,0,0,0-1.8.7,5.71,5.71,0,0,0-1.4,1.3,3.7,3.7,0,0,0-.8,1.8v.1a6.8,6.8,0,0,0-.2,2,4.76,4.76,0,0,0,.5,1.8,4.43,4.43,0,0,0,1.2,1.5A5.08,5.08,0,0,0,138.3,359.1Z"/><path class="cls-1" d="M154.6,348.2l4.8,1.3,5,11.8,2.6-9.7,5,1.3-4.9,18.4-4.5-1.2-5.2-12.2L154.7,368l-5-1.3Z"/><path class="cls-1" d="M175.3,353.8l7.1,1.9a12.5,12.5,0,0,1,4.2,1.9,9.34,9.34,0,0,1,2.8,2.8,8.3,8.3,0,0,1,1.3,3.4,8.84,8.84,0,0,1-.3,3.9v.1a10.37,10.37,0,0,1-1.7,3.5,9.18,9.18,0,0,1-2.8,2.4,9.29,9.29,0,0,1-3.8,1,12.5,12.5,0,0,1-4.6-.5l-7-1.9Zm3.5,15.8a6,6,0,0,0,4-.2,4.71,4.71,0,0,0,2.3-3.1v-.1a4.49,4.49,0,0,0-.5-3.8,5.26,5.26,0,0,0-3.4-2.2l-2.1-.6-2.5,9.4Z"/><path class="cls-1" d="M206,366.8l-5.5-1.5,1.2-4.5,16.1,4.3-1.2,4.5-5.5-1.5L207.4,382l-5.1-1.4Z"/><path class="cls-1" d="M220,365.8l5.1,1.4-1.8,6.9,6.5,1.8,1.8-6.9,5.1,1.4-4.9,18.4-5.1-1.4,1.9-7-6.5-1.8-1.9,7-5.1-1.4Z"/><path class="cls-1" d="M240.1,371.1l14.8,4-1.2,4.3-9.8-2.6-.7,2.8L252,382l-1.1,4-8.8-2.4-.8,2.9,9.9,2.6-1.2,4.3-14.9-4Z"/><path class="cls-1" d="M71.2,352.1l14.8,4-1.2,4.4L75,357.9l-.7,2.8,8.8,2.4L82,367.2l-8.8-2.4-.8,3,9.9,2.7-1.2,4.4-14.9-4Z"/><path class="cls-1" d="M87.3,356.5,93,358l1.1,12.9,7.3-10.7,5.6,1.5L94.6,378.4l-4.7-1.3Z"/><path class="cls-1" d="M108.7,362.3l14.8,4-1.2,4.4-9.8-2.6-.7,2.8,8.8,2.4-1.1,4.1-8.8-2.4-.8,3,9.9,2.7-1.2,4.4-14.9-4Z"/><path class="cls-1" d="M126.3,367l4.8,1.3,5,11.9,2.6-9.9,5,1.4-4.9,18.6-4.5-1.2-5.2-12.4-2.7,10.2-5-1.4Z"/><path class="cls-1" d="M150.2,378.4l-5.5-1.5,1.2-4.5,16.1,4.4-1.2,4.5-5.5-1.5-3.7,14.1-5.1-1.4Z"/><path class="cls-1" d="M171.6,379.3l5.1,1.4-1.8,7,6.5,1.8,1.8-7,5.1,1.4-4.9,18.6-5.1-1.4,1.9-7.1-6.5-1.8-1.9,7.1-5.1-1.4Z"/><path class="cls-1" d="M195.8,406.3a10.64,10.64,0,0,1-3.7-1.8,10.24,10.24,0,0,1-2.6-2.9,11.08,11.08,0,0,1-1.3-3.6,10.9,10.9,0,0,1,.2-4v-.1a11.9,11.9,0,0,1,1.7-3.6,9.89,9.89,0,0,1,2.9-2.5,11.49,11.49,0,0,1,3.7-1.2,9.63,9.63,0,0,1,4.1.3,10.64,10.64,0,0,1,3.7,1.8,10.24,10.24,0,0,1,2.6,2.9,11.08,11.08,0,0,1,1.3,3.6,10.9,10.9,0,0,1-.2,4v.1a11.9,11.9,0,0,1-1.7,3.6,8.61,8.61,0,0,1-2.9,2.5,11.49,11.49,0,0,1-3.7,1.2A9.63,9.63,0,0,1,195.8,406.3Zm1.3-4.7a4.58,4.58,0,0,0,2,.1,4,4,0,0,0,1.8-.7,5.71,5.71,0,0,0,1.4-1.3,5.08,5.08,0,0,0,.9-1.8v-.1a6.8,6.8,0,0,0,.2-2,6,6,0,0,0-.6-1.9,4.43,4.43,0,0,0-1.2-1.5,5.08,5.08,0,0,0-1.8-.9,4.58,4.58,0,0,0-2-.1,4.49,4.49,0,0,0-1.8.7,5.71,5.71,0,0,0-1.4,1.3,4.17,4.17,0,0,0-.8,1.8v.1a6.8,6.8,0,0,0-.2,2,5.92,5.92,0,0,0,.5,1.9,4.43,4.43,0,0,0,1.2,1.5A5.08,5.08,0,0,0,197.1,401.6Z"/><path class="cls-1" d="M213.4,390.7l8.7,2.4a12.69,12.69,0,0,1,3.5,1.5,5.69,5.69,0,0,1,2,2.1,6.06,6.06,0,0,1,.5,4.8v.1a6.06,6.06,0,0,1-5.3,4.7l2.7,7.7-5.9-1.6-2.2-6.7h-.1l-2.2-.6-1.5,5.6-5.1-1.4Zm6.1,11.2a4.07,4.07,0,0,0,2.2,0,1.77,1.77,0,0,0,1.1-1.4v-.1a2.09,2.09,0,0,0-.3-1.9,3.22,3.22,0,0,0-1.9-1.1l-3.3-.9-1.2,4.5Z"/><path class="cls-1" d="M232.4,395.8l5.1,1.4-4.9,18.6-5.1-1.4Z"/><path class="cls-1" d="M236.4,412.9l12-8-8.9-2.4,1.2-4.4,16,4.3-1,3.8-12,8,9.2,2.5-1.2,4.4-16.3-4.4Z"/><path class="cls-1" d="M263.5,424.7a10.64,10.64,0,0,1-3.7-1.8,10.24,10.24,0,0,1-2.6-2.9,11.08,11.08,0,0,1-1.3-3.6,10.9,10.9,0,0,1,.2-4v-.1a11.9,11.9,0,0,1,1.7-3.6,9.89,9.89,0,0,1,2.9-2.5,11.49,11.49,0,0,1,3.7-1.2,9.63,9.63,0,0,1,4.1.3,10.64,10.64,0,0,1,3.7,1.8,10.24,10.24,0,0,1,2.6,2.9,11.08,11.08,0,0,1,1.3,3.6,10.9,10.9,0,0,1-.2,4v.1a11.9,11.9,0,0,1-1.7,3.6,9.89,9.89,0,0,1-2.9,2.5,10.41,10.41,0,0,1-7.8.9Zm1.3-4.7a4.58,4.58,0,0,0,2,.1,4,4,0,0,0,1.8-.7,5.71,5.71,0,0,0,1.4-1.3,5.08,5.08,0,0,0,.9-1.8v-.1a6.8,6.8,0,0,0,.2-2,6,6,0,0,0-.6-1.9,4.43,4.43,0,0,0-1.2-1.5,5.08,5.08,0,0,0-1.8-.9,4.58,4.58,0,0,0-2-.1,4.49,4.49,0,0,0-1.8.7,5.71,5.71,0,0,0-1.4,1.3,4.17,4.17,0,0,0-.8,1.8v.1a6.8,6.8,0,0,0-.2,2,5.92,5.92,0,0,0,.5,1.9,4.43,4.43,0,0,0,1.2,1.5A5.08,5.08,0,0,0,264.8,420Z"/><path class="cls-1" d="M281.1,409.1l4.8,1.3,5,11.9,2.6-9.9,5,1.4-4.9,18.6-4.5-1.2-5.2-12.4L281.2,429l-5-1.4Z"/><polygon class="cls-1" points="115.9 182.8 124.9 173.7 128.2 186 115.9 182.8"/><path class="cls-1" d="M357.1,139l16.1,4.2L347.8,50l-54.6,55h.7A74.12,74.12,0,0,1,357.1,139Z"/><polygon class="cls-1" points="306 252.5 271.9 127.5 269.4 118 262.5 125 221.7 166.1 132 256.5 320.6 306.2 306 252.5"/><circle cx="0.4" cy="0.4" r="0.4"/><circle cx="499.4" cy="0.4" r="0.4"/><circle cx="499.4" cy="499.4" r="0.4"/><circle cx="0.4" cy="499.4" r="0.4"/></g></g></svg>