<svg xmlns="http://www.w3.org/2000/svg" viewBox="0 0 499.8 499.8"><defs><style>.cls-1{fill:#fff;}.cls-2{fill:#17ffdd;}.cls-3{fill:#982cff;}</style></defs><title>Asset 3</title><g id="Layer_2" data-name="Layer 2"><g id="Layer_1-2" data-name="Layer 1"><path class="cls-1" d="M96.2,265.3l20.1,5.4a38.24,38.24,0,0,1,11.9,5.2,26.34,26.34,0,0,1,7.8,7.8,22.26,22.26,0,0,1,3.5,9.7,27.27,27.27,0,0,1-.8,10.9v.1a26.88,26.88,0,0,1-4.8,9.9,24.51,24.51,0,0,1-8,6.7,28.29,28.29,0,0,1-10.8,3,38.34,38.34,0,0,1-13.1-1.4l-19.8-5.3ZM106,310q6.45,1.8,11.4-.6,4.8-2.4,6.6-8.7v-.1c1.1-4.2.7-7.7-1.4-10.8s-5.2-5.1-9.5-6.3l-5.9-1.6-7.1,26.5Z"/><path class="cls-1" d="M153.1,280.5l41.6,11.2-3.4,12.6L164.1,297l-2.3,8.8,24.6,6.6-3.2,12-24.6-6.6-5,18.6-14.4-3.9Z"/><path class="cls-1" d="M201.2,293.4l24.6,6.6a33.17,33.17,0,0,1,9.8,4.2,16.74,16.74,0,0,1,5.6,6c2.3,3.8,2.7,8.2,1.4,13.3v.1c-1.1,4-2.9,7.1-5.6,9.2a18.89,18.89,0,0,1-9.4,3.9l7.6,21.5-16.6-4.5-6.3-18.6h-.1l-6.2-1.7-4.2,15.8-14.4-3.9Zm17.3,31.4a9.26,9.26,0,0,0,6.2-.1,5.94,5.94,0,0,0,3.2-4v-.1a5.48,5.48,0,0,0-.8-5.2,10.12,10.12,0,0,0-5.3-3.1l-9.4-2.5-3.3,12.5Z"/><path class="cls-1" d="M266.6,367.8a31.61,31.61,0,0,1-10.6-5.1,28,28,0,0,1-7.3-8.1,27.52,27.52,0,0,1-2.8-21.1v-.1a27,27,0,0,1,4.9-9.9,26.16,26.16,0,0,1,8.2-7,28.82,28.82,0,0,1,10.5-3.4,29.34,29.34,0,0,1,11.7.9,31.61,31.61,0,0,1,10.6,5.1,28,28,0,0,1,7.3,8.1,27.52,27.52,0,0,1,2.8,21.1v.1a27,27,0,0,1-4.9,9.9,26.16,26.16,0,0,1-8.2,7,28.82,28.82,0,0,1-10.5,3.4A29.34,29.34,0,0,1,266.6,367.8Zm3.6-13a13.91,13.91,0,0,0,5.7.3,12.68,12.68,0,0,0,5-1.9,15.22,15.22,0,0,0,3.9-3.7,15,15,0,0,0,2.4-5.1v-.1a15.43,15.43,0,0,0,.5-5.6,13.17,13.17,0,0,0-1.6-5.2,13.69,13.69,0,0,0-3.4-4.2,12.35,12.35,0,0,0-5.1-2.6,13.91,13.91,0,0,0-5.7-.3,12.68,12.68,0,0,0-5,1.9A15.22,15.22,0,0,0,263,332a15,15,0,0,0-2.4,5.1v.1a15.43,15.43,0,0,0-.5,5.6,14.92,14.92,0,0,0,1.5,5.2,13.69,13.69,0,0,0,3.4,4.2A13.41,13.41,0,0,0,270.2,354.8Z"/><path class="cls-1" d="M322.7,382.7A41.83,41.83,0,0,1,310,377a34,34,0,0,1-9.4-9.5l10.6-7.5a27.86,27.86,0,0,0,15.2,10.8,9.81,9.81,0,0,0,4.7.3,2.91,2.91,0,0,0,2.2-2.2v-.1a2.55,2.55,0,0,0,0-1.5,4.14,4.14,0,0,0-1-1.6,18.26,18.26,0,0,0-2.4-1.9c-1-.7-2.4-1.4-4-2.3q-3.9-2.1-7.2-4.2a22.55,22.55,0,0,1-5.4-4.6,14.32,14.32,0,0,1-2.9-5.6,14.47,14.47,0,0,1,.3-7.1v-.1a15.94,15.94,0,0,1,8.6-10.5,19.09,19.09,0,0,1,7.3-1.7,27.1,27.1,0,0,1,8.7,1,36.7,36.7,0,0,1,11.5,5,31.29,31.29,0,0,1,8.1,7.7l-9.9,8.3a28.59,28.59,0,0,0-6.3-5.8,23.74,23.74,0,0,0-6.9-3.2,6.73,6.73,0,0,0-4.2-.1,2.91,2.91,0,0,0-1.9,2v.1a2.48,2.48,0,0,0,0,1.7,3.85,3.85,0,0,0,1.1,1.6,10.78,10.78,0,0,0,2.5,1.8,35.44,35.44,0,0,0,4.1,2.3,64.62,64.62,0,0,1,7.5,4.4,24.94,24.94,0,0,1,5.3,4.8,13.48,13.48,0,0,1,2.7,5.5,15,15,0,0,1-.3,6.6v.1a15.8,15.8,0,0,1-9.1,10.9A19.66,19.66,0,0,1,332,384,42.52,42.52,0,0,1,322.7,382.7Z"/><path class="cls-1" d="M374.2,353.3l-15.6-4.2,3.4-12.6,45.6,12.2-3.4,12.6-15.6-4.2L378,396.5l-14.4-3.9Z"/><polygon class="cls-2" points="399 138.9 369.9 168.2 311.4 227.2 345.4 236.2 431.7 258.9 399 138.9"/><polygon class="cls-3" points="167.8 169.6 223.8 113.1 244.8 189.9 167.8 169.6"/><polygon class="cls-1" points="137.4 169.8 168.2 138.8 179.6 180.9 137.4 169.8"/><polygon class="cls-1" points="146 203 157.5 191.5 161.7 207.2 146 203"/><circle cx="0.4" cy="0.4" r="0.4"/><circle cx="499.4" cy="0.4" r="0.4"/><circle cx="499.4" cy="499.4" r="0.4"/><circle cx="0.4" cy="499.4" r="0.4"/></g></g></svg>