<?xml version="1.0" encoding="utf-8"?>
<!-- Generator: Adobe Illustrator 19.0.0, SVG Export Plug-In . SVG Version: 6.00 Build 0)  -->
<svg version="1.1" id="Layer_1" xmlns="http://www.w3.org/2000/svg" xmlns:xlink="http://www.w3.org/1999/xlink" x="0px" y="0px"
	 width="500px" height="500px" viewBox="-389 391 500 500" style="enable-background:new -389 391 500 500;" xml:space="preserve">
<style type="text/css">
	.st0{fill:#FFFFFF;}
	.st1{fill:#FF00C3;}
	.st2{fill:#17FFDD;}
	.st3{fill:#982CFF;}
</style>
<g>
	<path class="st0" d="M-54.4,798.7l-7.9-0.3l0.2-10.1l14-0.2l8.9,2.4l-12,44.6l-12.1-3.2L-54.4,798.7z"/>
	<path class="st0" d="M-14.3,808.5l-20.5-5.5l2.7-10.3L2,801.8l-2.5,9.2l-29,29.8l-13.5-3.6L-14.3,808.5z"/>
	<g>
		<g>
			<path class="st1" d="M-116.3,500l-3.9-14.4l-24.8,25l6.4,1.7C-132,507-124.5,502.8-116.3,500z"/>
		</g>
		<g>
			<g>
				<path class="st1" d="M-43.9,662.4l-8.1-29.8c-8.6,5.6-18.4,9.4-28.9,11l-39.9-1.5L-43.9,662.4z"/>
			</g>
		</g>
		<g>
			<polygon class="st1" points="-265.1,617.1 -247.8,599.6 -241.3,623.4 			"/>
		</g>
		<g>
			<polygon class="st1" points="-80.5,779.7 -65.3,783.7 -76.3,794.9 			"/>
		</g>
	</g>
</g>
<g>
	<path class="st0" d="M-292.8,655.3l20.1,5.4c4.7,1.2,8.6,3,11.9,5.2c3.3,2.2,5.9,4.8,7.8,7.8c1.9,2.9,3.1,6.2,3.5,9.7
		c0.5,3.5,0.2,7.1-0.8,10.9v0.1c-1,3.8-2.6,7.1-4.8,9.9c-2.2,2.8-4.9,5.1-8,6.7c-3.2,1.7-6.7,2.6-10.8,3c-4,0.3-8.4-0.1-13.1-1.4
		l-19.8-5.3L-292.8,655.3z M-283,700c4.3,1.2,8.1,1,11.4-0.6c3.2-1.6,5.4-4.5,6.6-8.7v-0.1c1.1-4.2,0.7-7.7-1.4-10.8
		s-5.2-5.1-9.5-6.3l-5.9-1.6l-7.1,26.5L-283,700z"/>
	<path class="st0" d="M-235.9,670.5l41.6,11.2l-3.4,12.6l-27.2-7.3l-2.3,8.8l24.6,6.6l-3.2,12l-24.6-6.6l-5,18.6l-14.4-3.9
		L-235.9,670.5z"/>
	<path class="st0" d="M-187.8,683.4l24.6,6.6c4,1.1,7.3,2.5,9.8,4.2s4.4,3.7,5.6,6c2.3,3.8,2.7,8.2,1.4,13.3v0.1
		c-1.1,4-2.9,7.1-5.6,9.2c-2.6,2.1-5.8,3.4-9.4,3.9l7.6,21.5l-16.6-4.5l-6.3-18.6h-0.1l-6.2-1.7l-4.2,15.8l-14.4-3.9L-187.8,683.4z
		 M-170.5,714.8c2.5,0.7,4.5,0.6,6.2-0.1c1.6-0.8,2.7-2.1,3.2-4v-0.1c0.6-2.1,0.3-3.8-0.8-5.2c-1.1-1.4-2.9-2.4-5.3-3.1l-9.4-2.5
		l-3.3,12.5L-170.5,714.8z"/>
	<path class="st0" d="M-122.4,757.8c-4-1.1-7.5-2.8-10.6-5.1c-3-2.3-5.5-5-7.3-8.1s-3-6.5-3.5-10.1c-0.5-3.6-0.3-7.3,0.7-11v-0.1
		c1-3.7,2.6-7,4.9-9.9c2.3-2.9,5-5.3,8.2-7c3.2-1.8,6.7-2.9,10.5-3.4s7.7-0.2,11.7,0.9c4,1.1,7.5,2.8,10.6,5.1c3,2.3,5.5,5,7.3,8.1
		c1.8,3.1,3,6.5,3.5,10.1s0.3,7.3-0.7,11v0.1c-1,3.7-2.6,7-4.9,9.9s-5,5.3-8.2,7c-3.2,1.8-6.7,2.9-10.5,3.4
		C-114.5,759.2-118.4,758.9-122.4,757.8z M-118.8,744.8c2,0.5,3.9,0.6,5.7,0.3c1.8-0.3,3.5-0.9,5-1.9s2.8-2.2,3.9-3.7
		s1.9-3.2,2.4-5.1v-0.1c0.5-1.9,0.7-3.8,0.5-5.6c-0.2-1.9-0.7-3.6-1.6-5.2c-0.8-1.6-2-3-3.4-4.2s-3.1-2.1-5.1-2.6s-3.9-0.6-5.7-0.3
		c-1.8,0.3-3.5,0.9-5,1.9s-2.8,2.2-3.9,3.7s-1.9,3.2-2.4,5.1v0.1c-0.5,1.9-0.7,3.8-0.5,5.6c0.2,1.9,0.7,3.6,1.5,5.2
		c0.8,1.6,2,3,3.4,4.2C-122.5,743.4-120.8,744.3-118.8,744.8z"/>
	<path class="st0" d="M-66.3,772.7c-4.7-1.2-8.9-3.2-12.7-5.7c-3.8-2.6-6.9-5.7-9.4-9.5l10.6-7.5c4.1,5.6,9.2,9.1,15.2,10.8
		c1.9,0.5,3.5,0.6,4.7,0.3c1.2-0.3,1.9-1.1,2.2-2.2v-0.1c0.1-0.5,0.2-1.1,0-1.5c-0.1-0.5-0.5-1-1-1.6c-0.6-0.6-1.4-1.2-2.4-1.9
		c-1-0.7-2.4-1.4-4-2.3c-2.6-1.4-5-2.8-7.2-4.2c-2.2-1.4-4-2.9-5.4-4.6s-2.4-3.6-2.9-5.6c-0.5-2.1-0.4-4.5,0.3-7.1v-0.1
		c0.6-2.4,1.7-4.5,3.2-6.3c1.5-1.8,3.3-3.2,5.4-4.2c2.2-1,4.6-1.6,7.3-1.7c2.7-0.2,5.6,0.2,8.7,1c4.5,1.2,8.3,2.8,11.5,5
		c3.2,2.1,5.9,4.7,8.1,7.7l-9.9,8.3c-1.9-2.3-4-4.3-6.3-5.8s-4.6-2.6-6.9-3.2c-1.7-0.5-3.1-0.5-4.2-0.1c-1,0.4-1.7,1.1-1.9,2v0.1
		c-0.2,0.6-0.2,1.1,0,1.7c0.2,0.5,0.5,1.1,1.1,1.6c0.6,0.6,1.4,1.2,2.5,1.8c1.1,0.7,2.4,1.5,4.1,2.3c2.8,1.4,5.3,2.9,7.5,4.4
		s3.9,3.1,5.3,4.8c1.4,1.7,2.2,3.5,2.7,5.5c0.4,2,0.3,4.2-0.3,6.6v0.1c-0.7,2.7-1.9,4.9-3.4,6.7c-1.6,1.8-3.5,3.2-5.7,4.2
		s-4.7,1.5-7.5,1.6C-60.2,773.9-63.1,773.5-66.3,772.7z"/>
	<path class="st0" d="M-14.8,743.3l-15.6-4.2l3.4-12.6l45.6,12.2l-3.4,12.6l-15.6-4.2L-11,786.5l-14.4-3.9L-14.8,743.3z"/>
	<g>
		<polygon class="st2" points="10,528.9 -19.1,558.2 -77.6,617.2 -43.6,626.2 42.7,648.9 		"/>
	</g>
	<g>
		<polygon class="st3" points="-221.2,559.6 -165.2,503.1 -144.2,579.9 		"/>
	</g>
	<g>
		<polygon class="st0" points="-251.6,559.8 -220.8,528.8 -209.4,570.9 		"/>
	</g>
	<g>
		<polygon class="st0" points="-243,593 -231.5,581.5 -227.3,597.2 		"/>
	</g>
</g>
<g>
	<circle cx="-388.6" cy="391.4" r="0.4"/>
	<circle cx="110.4" cy="391.4" r="0.4"/>
	<circle cx="110.4" cy="890.4" r="0.4"/>
	<circle cx="-388.6" cy="890.4" r="0.4"/>
</g>
<g>
	<g>
		<path class="st0" d="M-309.6,718.6l9.4,2.5c1.2,0.3,2.1,0.7,2.9,1.2c0.7,0.5,1.3,1.1,1.7,1.8c0.3,0.5,0.4,1,0.5,1.5s0,1.1-0.1,1.8
			v0.1c-0.3,1.1-0.8,1.9-1.5,2.4c-0.7,0.5-1.5,0.8-2.4,1c1,0.7,1.8,1.4,2.3,2.3c0.5,0.9,0.5,1.9,0.2,3.2v0.1
			c-0.4,1.6-1.4,2.7-2.8,3.2c-1.5,0.6-3.3,0.6-5.5,0l-9.5-2.5L-309.6,718.6z M-303.4,728.1c0.8,0.2,1.4,0.2,1.9,0.1
			c0.5-0.2,0.8-0.5,0.9-1v-0.1c0.1-0.5,0-0.9-0.3-1.3c-0.3-0.4-0.9-0.7-1.6-0.9l-3.3-0.9l-0.9,3.2L-303.4,728.1z M-304.5,735.3
			c0.8,0.2,1.4,0.2,1.9,0.1c0.5-0.1,0.8-0.5,1-1.1v-0.1c0.1-0.5,0-1-0.3-1.4c-0.3-0.4-0.9-0.7-1.8-1l-3.9-1l-0.9,3.4L-304.5,735.3z"
			/>
		<path class="st0" d="M-290.8,723.6l14.8,4l-1.2,4.3l-9.8-2.6l-0.7,2.8l8.8,2.4l-1.1,4l-8.8-2.4l-0.8,2.9l9.9,2.6l-1.2,4.3l-14.9-4
			L-290.8,723.6z"/>
		<path class="st0" d="M-271,741.2l-3.9-13.4l5.8,1.6l2,7.7l5.6-5.7l5.7,1.5l-10.1,9.6l-1.9,7l-5.1-1.4L-271,741.2z"/>
		<path class="st0" d="M-250,754.7c-1.4-0.4-2.7-1-3.7-1.8c-1.1-0.8-1.9-1.8-2.6-2.9c-0.6-1.1-1.1-2.3-1.3-3.6
			c-0.2-1.3-0.1-2.6,0.2-3.9v-0.1c0.4-1.3,0.9-2.5,1.7-3.5c0.8-1,1.8-1.9,2.9-2.5c1.1-0.6,2.4-1,3.7-1.2s2.7-0.1,4.1,0.3
			c1.4,0.4,2.7,1,3.7,1.8c1.1,0.8,1.9,1.8,2.6,2.9c0.6,1.1,1.1,2.3,1.3,3.6s0.1,2.6-0.2,3.9v0.1c-0.4,1.3-0.9,2.5-1.7,3.5
			s-1.8,1.9-2.9,2.5c-1.1,0.6-2.4,1-3.7,1.2C-247.2,755.1-248.6,755-250,754.7z M-248.7,750.1c0.7,0.2,1.4,0.2,2,0.1
			c0.7-0.1,1.2-0.3,1.8-0.7c0.5-0.3,1-0.8,1.4-1.3s0.7-1.1,0.9-1.8v-0.1c0.2-0.7,0.2-1.3,0.2-2c-0.1-0.7-0.3-1.3-0.6-1.8
			c-0.3-0.6-0.7-1.1-1.2-1.5c-0.5-0.4-1.1-0.7-1.8-0.9s-1.4-0.2-2-0.1c-0.6,0.1-1.2,0.3-1.8,0.7c-0.5,0.3-1,0.8-1.4,1.3
			s-0.7,1.1-0.8,1.8v0.1c-0.2,0.7-0.2,1.3-0.2,2c0.1,0.7,0.2,1.3,0.5,1.8c0.3,0.6,0.7,1.1,1.2,1.5
			C-250,749.6-249.4,749.9-248.7,750.1z"/>
		<path class="st0" d="M-232.4,739.2l4.8,1.3l5,11.8l2.6-9.7l5,1.3l-4.9,18.4l-4.5-1.2l-5.2-12.2l-2.7,10.1l-5-1.3L-232.4,739.2z"/>
		<path class="st0" d="M-211.7,744.8l7.1,1.9c1.6,0.4,3.1,1.1,4.2,1.9c1.2,0.8,2.1,1.7,2.8,2.8c0.7,1,1.1,2.2,1.3,3.4
			c0.2,1.2,0.1,2.5-0.3,3.9v0.1c-0.4,1.3-0.9,2.5-1.7,3.5s-1.7,1.8-2.8,2.4s-2.4,0.9-3.8,1c-1.4,0.1-3,0-4.6-0.5l-7-1.9
			L-211.7,744.8z M-208.2,760.6c1.5,0.4,2.9,0.3,4-0.2c1.1-0.6,1.9-1.6,2.3-3.1v-0.1c0.4-1.5,0.2-2.7-0.5-3.8
			c-0.7-1.1-1.8-1.8-3.4-2.2l-2.1-0.6l-2.5,9.4L-208.2,760.6z"/>
		<path class="st0" d="M-181,757.8l-5.5-1.5l1.2-4.5l16.1,4.3l-1.2,4.5l-5.5-1.5l-3.7,13.9l-5.1-1.4L-181,757.8z"/>
		<path class="st0" d="M-167,756.8l5.1,1.4l-1.8,6.9l6.5,1.8l1.8-6.9l5.1,1.4l-4.9,18.4l-5.1-1.4l1.9-7l-6.5-1.8l-1.9,7l-5.1-1.4
			L-167,756.8z"/>
		<path class="st0" d="M-146.9,762.1l14.8,4l-1.2,4.3l-9.8-2.6l-0.7,2.8l8.8,2.4l-1.1,4l-8.8-2.4l-0.8,2.9l9.9,2.6l-1.2,4.3l-14.9-4
			L-146.9,762.1z"/>
		<path class="st0" d="M-315.8,743.1l14.8,4l-1.2,4.4l-9.8-2.6l-0.7,2.8l8.8,2.4l-1.1,4.1l-8.8-2.4l-0.8,3l9.9,2.7l-1.2,4.4l-14.9-4
			L-315.8,743.1z"/>
		<path class="st0" d="M-299.7,747.5l5.7,1.5l1.1,12.9l7.3-10.7l5.6,1.5l-12.4,16.7l-4.7-1.3L-299.7,747.5z"/>
		<path class="st0" d="M-278.3,753.3l14.8,4l-1.2,4.4l-9.8-2.6l-0.7,2.8l8.8,2.4l-1.1,4.1l-8.8-2.4l-0.8,3l9.9,2.7l-1.2,4.4l-14.9-4
			L-278.3,753.3z"/>
		<path class="st0" d="M-260.7,758l4.8,1.3l5,11.9l2.6-9.9l5,1.4l-4.9,18.6l-4.5-1.2l-5.2-12.4l-2.7,10.2l-5-1.4L-260.7,758z"/>
		<path class="st0" d="M-236.8,769.4l-5.5-1.5l1.2-4.5l16.1,4.4l-1.2,4.5l-5.5-1.5l-3.7,14.1l-5.1-1.4L-236.8,769.4z"/>
		<path class="st0" d="M-215.4,770.3l5.1,1.4l-1.8,7l6.5,1.8l1.8-7l5.1,1.4l-4.9,18.6l-5.1-1.4l1.9-7.1l-6.5-1.8l-1.9,7.1l-5.1-1.4
			L-215.4,770.3z"/>
		<path class="st0" d="M-191.2,797.3c-1.4-0.4-2.7-1-3.7-1.8c-1.1-0.8-1.9-1.8-2.6-2.9c-0.6-1.1-1.1-2.3-1.3-3.6
			c-0.2-1.3-0.1-2.6,0.2-4v-0.1c0.4-1.3,0.9-2.5,1.7-3.6c0.8-1,1.8-1.9,2.9-2.5c1.1-0.6,2.4-1,3.7-1.2s2.7-0.1,4.1,0.3
			c1.4,0.4,2.7,1,3.7,1.8c1.1,0.8,1.9,1.8,2.6,2.9c0.6,1.1,1.1,2.3,1.3,3.6c0.2,1.3,0.1,2.6-0.2,4v0.1c-0.4,1.3-0.9,2.5-1.7,3.6
			s-1.8,1.9-2.9,2.5s-2.4,1-3.7,1.2S-189.8,797.7-191.2,797.3z M-189.9,792.6c0.7,0.2,1.4,0.2,2,0.1c0.7-0.1,1.2-0.3,1.8-0.7
			c0.5-0.3,1-0.8,1.4-1.3s0.7-1.1,0.9-1.8v-0.1c0.2-0.7,0.2-1.3,0.2-2c-0.1-0.7-0.3-1.3-0.6-1.9s-0.7-1.1-1.2-1.5s-1.1-0.7-1.8-0.9
			c-0.7-0.2-1.4-0.2-2-0.1s-1.2,0.3-1.8,0.7c-0.5,0.3-1,0.8-1.4,1.3s-0.7,1.2-0.8,1.8v0.1c-0.2,0.7-0.2,1.3-0.2,2
			c0.1,0.7,0.2,1.3,0.5,1.9s0.7,1.1,1.2,1.5C-191.2,792.1-190.6,792.4-189.9,792.6z"/>
		<path class="st0" d="M-173.6,781.7l8.7,2.4c1.4,0.4,2.6,0.9,3.5,1.5c0.9,0.6,1.6,1.3,2,2.1c0.8,1.4,1,3,0.5,4.8v0.1
			c-0.4,1.4-1,2.5-2,3.3c-0.9,0.8-2,1.2-3.3,1.4l2.7,7.7l-5.9-1.6l-2.2-6.7h-0.1l-2.2-0.6l-1.5,5.6l-5.1-1.4L-173.6,781.7z
			 M-167.5,792.9c0.9,0.2,1.6,0.2,2.2,0c0.6-0.3,1-0.7,1.1-1.4v-0.1c0.2-0.7,0.1-1.4-0.3-1.9c-0.4-0.5-1-0.9-1.9-1.1l-3.3-0.9
			l-1.2,4.5L-167.5,792.9z"/>
		<path class="st0" d="M-154.6,786.8l5.1,1.4l-4.9,18.6l-5.1-1.4L-154.6,786.8z"/>
		<path class="st0" d="M-150.6,803.9l12-8l-8.9-2.4l1.2-4.4l16,4.3l-1,3.8l-12,8l9.2,2.5l-1.2,4.4l-16.3-4.4L-150.6,803.9z"/>
		<path class="st0" d="M-123.5,815.7c-1.4-0.4-2.7-1-3.7-1.8c-1.1-0.8-1.9-1.8-2.6-2.9c-0.6-1.1-1.1-2.3-1.3-3.6
			c-0.2-1.3-0.1-2.6,0.2-4v-0.1c0.4-1.3,0.9-2.5,1.7-3.6c0.8-1,1.8-1.9,2.9-2.5s2.4-1,3.7-1.2c1.3-0.2,2.7-0.1,4.1,0.3
			s2.7,1,3.7,1.8c1.1,0.8,1.9,1.8,2.6,2.9c0.6,1.1,1.1,2.3,1.3,3.6c0.2,1.3,0.1,2.6-0.2,4v0.1c-0.4,1.3-0.9,2.5-1.7,3.6
			c-0.8,1-1.8,1.9-2.9,2.5s-2.4,1-3.7,1.2S-122.1,816-123.5,815.7z M-122.2,811c0.7,0.2,1.4,0.2,2,0.1c0.7-0.1,1.2-0.3,1.8-0.7
			c0.5-0.3,1-0.8,1.4-1.3s0.7-1.1,0.9-1.8v-0.1c0.2-0.7,0.2-1.3,0.2-2c-0.1-0.7-0.3-1.3-0.6-1.9c-0.3-0.6-0.7-1.1-1.2-1.5
			c-0.5-0.4-1.1-0.7-1.8-0.9c-0.7-0.2-1.4-0.2-2-0.1c-0.6,0.1-1.2,0.3-1.8,0.7c-0.5,0.3-1,0.8-1.4,1.3s-0.7,1.2-0.8,1.8v0.1
			c-0.2,0.7-0.2,1.3-0.2,2c0.1,0.7,0.2,1.3,0.5,1.9c0.3,0.6,0.7,1.1,1.2,1.5C-123.5,810.5-122.9,810.8-122.2,811z"/>
		<path class="st0" d="M-105.9,800.1l4.8,1.3l5,11.9l2.6-9.9l5,1.4l-4.9,18.6l-4.5-1.2l-5.2-12.4l-2.7,10.2l-5-1.4L-105.9,800.1z"/>
		<g>
			<polygon class="st0" points="-271.1,573.8 -262.1,564.7 -258.8,577 			"/>
		</g>
		<g>
			<path class="st0" d="M-29.9,530l16.1,4.2L-39.2,441l-54.6,55c0.2,0,0.5,0,0.7,0C-66.6,495.7-43.3,509.3-29.9,530z"/>
		</g>
		<g>
			<polygon class="st0" points="-81,643.5 -115.1,518.5 -117.6,509 -124.5,516 -165.3,557.1 -255,647.5 -66.4,697.2 			"/>
		</g>
	</g>
	<g>
		<circle cx="-386.6" cy="391.4" r="0.4"/>
		<circle cx="112.4" cy="391.4" r="0.4"/>
		<circle cx="112.4" cy="890.4" r="0.4"/>
		<circle cx="-386.6" cy="890.4" r="0.4"/>
	</g>
</g>
<g>
	<circle cx="-388.6" cy="391.4" r="0.4"/>
	<circle cx="110.4" cy="391.4" r="0.4"/>
	<circle cx="110.4" cy="890.4" r="0.4"/>
	<circle cx="-388.6" cy="890.4" r="0.4"/>
</g>
<g>
	<circle cx="-387.6" cy="391.4" r="0.4"/>
	<circle cx="111.4" cy="391.4" r="0.4"/>
	<circle cx="111.4" cy="890.4" r="0.4"/>
	<circle cx="-387.6" cy="890.4" r="0.4"/>
</g>
</svg>
