<?xml version="1.0" encoding="utf-8"?>
<!-- Generator: Adobe Illustrator 21.0.0, SVG Export Plug-In . SVG Version: 6.00 Build 0)  -->
<svg version="1.1" id="Layer_1" xmlns="http://www.w3.org/2000/svg" xmlns:xlink="http://www.w3.org/1999/xlink" x="0px" y="0px"
	 viewBox="0 0 500 500" style="enable-background:new 0 0 500 500;" xml:space="preserve">
<style type="text/css">
	.st0{fill:#FFFFFF;}
	.st1{fill:#FF00C3;}
	.st2{fill:#17FFDD;}
	.st3{fill:#982CFF;}
</style>
<g>
	<path class="st0" d="M334.6,407.7l-7.9-0.3l0.2-10.1l14-0.2l8.9,2.4l-12,44.6l-12.1-3.2L334.6,407.7z"/>
	<path class="st0" d="M374.7,417.5l-20.5-5.5l2.7-10.3l34.1,9.1l-2.5,9.2l-29,29.8l-13.5-3.6L374.7,417.5z"/>
	<g>
		<g>
			<path class="st1" d="M272.7,109l-3.9-14.4l-24.8,25l6.4,1.7C257,116,264.5,111.8,272.7,109z"/>
		</g>
		<g>
			<g>
				<path class="st1" d="M345.1,271.4l-8.1-29.8c-8.6,5.6-18.4,9.4-28.9,11l-39.9-1.5L345.1,271.4z"/>
			</g>
		</g>
		<g>
			<polygon class="st1" points="123.9,226.1 141.2,208.6 147.7,232.4 			"/>
		</g>
		<g>
			<polygon class="st1" points="308.5,388.7 323.7,392.7 312.7,403.9 			"/>
		</g>
	</g>
</g>
<g>
	<path class="st0" d="M96.2,264.3l20.1,5.4c4.7,1.2,8.6,3,11.9,5.2s5.9,4.8,7.8,7.8c1.9,2.9,3.1,6.2,3.5,9.7
		c0.5,3.5,0.2,7.1-0.8,10.9v0.1c-1,3.8-2.6,7.1-4.8,9.9s-4.9,5.1-8,6.7c-3.2,1.7-6.7,2.6-10.8,3c-4,0.3-8.4-0.1-13.1-1.4l-19.8-5.3
		L96.2,264.3z M106,309c4.3,1.2,8.1,1,11.4-0.6c3.2-1.6,5.4-4.5,6.6-8.7v-0.1c1.1-4.2,0.7-7.7-1.4-10.8s-5.2-5.1-9.5-6.3l-5.9-1.6
		l-7.1,26.5L106,309z"/>
	<path class="st0" d="M153.1,279.5l41.6,11.2l-3.4,12.6l-27.2-7.3l-2.3,8.8l24.6,6.6l-3.2,12l-24.6-6.6l-5,18.6l-14.4-3.9
		L153.1,279.5z"/>
	<path class="st0" d="M201.2,292.4l24.6,6.6c4,1.1,7.3,2.5,9.8,4.2s4.4,3.7,5.6,6c2.3,3.8,2.7,8.2,1.4,13.3v0.1
		c-1.1,4-2.9,7.1-5.6,9.2c-2.6,2.1-5.8,3.4-9.4,3.9l7.6,21.5l-16.6-4.5l-6.3-18.6h-0.1l-6.2-1.7l-4.2,15.8l-14.4-3.9L201.2,292.4z
		 M218.5,323.8c2.5,0.7,4.5,0.6,6.2-0.1c1.6-0.8,2.7-2.1,3.2-4v-0.1c0.6-2.1,0.3-3.8-0.8-5.2c-1.1-1.4-2.9-2.4-5.3-3.1l-9.4-2.5
		l-3.3,12.5L218.5,323.8z"/>
	<path class="st0" d="M266.6,366.8c-4-1.1-7.5-2.8-10.6-5.1c-3-2.3-5.5-5-7.3-8.1s-3-6.5-3.5-10.1s-0.3-7.3,0.7-11v-0.1
		c1-3.7,2.6-7,4.9-9.9c2.3-2.9,5-5.3,8.2-7c3.2-1.8,6.7-2.9,10.5-3.4s7.7-0.2,11.7,0.9s7.5,2.8,10.6,5.1c3,2.3,5.5,5,7.3,8.1
		s3,6.5,3.5,10.1s0.3,7.3-0.7,11v0.1c-1,3.7-2.6,7-4.9,9.9s-5,5.3-8.2,7c-3.2,1.8-6.7,2.9-10.5,3.4
		C274.5,368.2,270.6,367.9,266.6,366.8z M270.2,353.8c2,0.5,3.9,0.6,5.7,0.3c1.8-0.3,3.5-0.9,5-1.9s2.8-2.2,3.9-3.7s1.9-3.2,2.4-5.1
		v-0.1c0.5-1.9,0.7-3.8,0.5-5.6c-0.2-1.9-0.7-3.6-1.6-5.2c-0.8-1.6-2-3-3.4-4.2s-3.1-2.1-5.1-2.6s-3.9-0.6-5.7-0.3
		c-1.8,0.3-3.5,0.9-5,1.9s-2.8,2.2-3.9,3.7s-1.9,3.2-2.4,5.1v0.1c-0.5,1.9-0.7,3.8-0.5,5.6c0.2,1.9,0.7,3.6,1.5,5.2s2,3,3.4,4.2
		C266.5,352.4,268.2,353.3,270.2,353.8z"/>
	<path class="st0" d="M322.7,381.7c-4.7-1.2-8.9-3.2-12.7-5.7c-3.8-2.6-6.9-5.7-9.4-9.5l10.6-7.5c4.1,5.6,9.2,9.1,15.2,10.8
		c1.9,0.5,3.5,0.6,4.7,0.3c1.2-0.3,1.9-1.1,2.2-2.2v-0.1c0.1-0.5,0.2-1.1,0-1.5c-0.1-0.5-0.5-1-1-1.6c-0.6-0.6-1.4-1.2-2.4-1.9
		c-1-0.7-2.4-1.4-4-2.3c-2.6-1.4-5-2.8-7.2-4.2c-2.2-1.4-4-2.9-5.4-4.6s-2.4-3.6-2.9-5.6c-0.5-2.1-0.4-4.5,0.3-7.1v-0.1
		c0.6-2.4,1.7-4.5,3.2-6.3s3.3-3.2,5.4-4.2c2.2-1,4.6-1.6,7.3-1.7c2.7-0.2,5.6,0.2,8.7,1c4.5,1.2,8.3,2.8,11.5,5
		c3.2,2.1,5.9,4.7,8.1,7.7l-9.9,8.3c-1.9-2.3-4-4.3-6.3-5.8s-4.6-2.6-6.9-3.2c-1.7-0.5-3.1-0.5-4.2-0.1c-1,0.4-1.7,1.1-1.9,2v0.1
		c-0.2,0.6-0.2,1.1,0,1.7c0.2,0.5,0.5,1.1,1.1,1.6c0.6,0.6,1.4,1.2,2.5,1.8c1.1,0.7,2.4,1.5,4.1,2.3c2.8,1.4,5.3,2.9,7.5,4.4
		s3.9,3.1,5.3,4.8c1.4,1.7,2.2,3.5,2.7,5.5c0.4,2,0.3,4.2-0.3,6.6v0.1c-0.7,2.7-1.9,4.9-3.4,6.7c-1.6,1.8-3.5,3.2-5.7,4.2
		s-4.7,1.5-7.5,1.6C328.8,382.9,325.9,382.5,322.7,381.7z"/>
	<path class="st0" d="M374.2,352.3l-15.6-4.2l3.4-12.6l45.6,12.2l-3.4,12.6l-15.6-4.2L378,395.5l-14.4-3.9L374.2,352.3z"/>
	<g>
		<polygon class="st2" points="399,137.9 369.9,167.2 311.4,226.2 345.4,235.2 431.7,257.9 		"/>
	</g>
	<g>
		<polygon class="st3" points="167.8,168.6 223.8,112.1 244.8,188.9 		"/>
	</g>
	<g>
		<polygon class="st0" points="137.4,168.8 168.2,137.8 179.6,179.9 		"/>
	</g>
	<g>
		<polygon class="st0" points="146,202 157.5,190.5 161.7,206.2 		"/>
	</g>
</g>
<g>
	<circle cx="0.4" cy="0.4" r="0.4"/>
	<circle cx="499.4" cy="0.4" r="0.4"/>
	<circle cx="499.4" cy="499.4" r="0.4"/>
	<circle cx="0.4" cy="499.4" r="0.4"/>
</g>
<g>
	<g>
		<path class="st0" d="M79.4,327.6l9.4,2.5c1.2,0.3,2.1,0.7,2.9,1.2c0.7,0.5,1.3,1.1,1.7,1.8c0.3,0.5,0.4,1,0.5,1.5s0,1.1-0.1,1.8
			v0.1c-0.3,1.1-0.8,1.9-1.5,2.4s-1.5,0.8-2.4,1c1,0.7,1.8,1.4,2.3,2.3s0.5,1.9,0.2,3.2v0.1c-0.4,1.6-1.4,2.7-2.8,3.2
			c-1.5,0.6-3.3,0.6-5.5,0l-9.5-2.5L79.4,327.6z M85.6,337.1c0.8,0.2,1.4,0.2,1.9,0.1c0.5-0.2,0.8-0.5,0.9-1v-0.1
			c0.1-0.5,0-0.9-0.3-1.3s-0.9-0.7-1.6-0.9l-3.3-0.9l-0.9,3.2L85.6,337.1z M84.5,344.3c0.8,0.2,1.4,0.2,1.9,0.1s0.8-0.5,1-1.1v-0.1
			c0.1-0.5,0-1-0.3-1.4s-0.9-0.7-1.8-1l-3.9-1l-0.9,3.4L84.5,344.3z"/>
		<path class="st0" d="M98.2,332.6l14.8,4l-1.2,4.3l-9.8-2.6l-0.7,2.8l8.8,2.4l-1.1,4l-8.8-2.4l-0.8,2.9l9.9,2.6l-1.2,4.3l-14.9-4
			L98.2,332.6z"/>
		<path class="st0" d="M118,350.2l-3.9-13.4l5.8,1.6l2,7.7l5.6-5.7l5.7,1.5l-10.1,9.6l-1.9,7l-5.1-1.4L118,350.2z"/>
		<path class="st0" d="M139,363.7c-1.4-0.4-2.7-1-3.7-1.8c-1.1-0.8-1.9-1.8-2.6-2.9c-0.6-1.1-1.1-2.3-1.3-3.6
			c-0.2-1.3-0.1-2.6,0.2-3.9v-0.1c0.4-1.3,0.9-2.5,1.7-3.5s1.8-1.9,2.9-2.5c1.1-0.6,2.4-1,3.7-1.2s2.7-0.1,4.1,0.3
			c1.4,0.4,2.7,1,3.7,1.8c1.1,0.8,1.9,1.8,2.6,2.9c0.6,1.1,1.1,2.3,1.3,3.6c0.2,1.3,0.1,2.6-0.2,3.9v0.1c-0.4,1.3-0.9,2.5-1.7,3.5
			s-1.8,1.9-2.9,2.5c-1.1,0.6-2.4,1-3.7,1.2C141.8,364.1,140.4,364,139,363.7z M140.3,359.1c0.7,0.2,1.4,0.2,2,0.1
			c0.7-0.1,1.2-0.3,1.8-0.7c0.5-0.3,1-0.8,1.4-1.3s0.7-1.1,0.9-1.8v-0.1c0.2-0.7,0.2-1.3,0.2-2c-0.1-0.7-0.3-1.3-0.6-1.8
			c-0.3-0.6-0.7-1.1-1.2-1.5s-1.1-0.7-1.8-0.9c-0.7-0.2-1.4-0.2-2-0.1s-1.2,0.3-1.8,0.7c-0.5,0.3-1,0.8-1.4,1.3s-0.7,1.1-0.8,1.8
			v0.1c-0.2,0.7-0.2,1.3-0.2,2c0.1,0.7,0.2,1.3,0.5,1.8c0.3,0.6,0.7,1.1,1.2,1.5C139,358.6,139.6,358.9,140.3,359.1z"/>
		<path class="st0" d="M156.6,348.2l4.8,1.3l5,11.8l2.6-9.7l5,1.3l-4.9,18.4l-4.5-1.2l-5.2-12.2l-2.7,10.1l-5-1.3L156.6,348.2z"/>
		<path class="st0" d="M177.3,353.8l7.1,1.9c1.6,0.4,3.1,1.1,4.2,1.9c1.2,0.8,2.1,1.7,2.8,2.8c0.7,1,1.1,2.2,1.3,3.4
			c0.2,1.2,0.1,2.5-0.3,3.9v0.1c-0.4,1.3-0.9,2.5-1.7,3.5s-1.7,1.8-2.8,2.4s-2.4,0.9-3.8,1c-1.4,0.1-3,0-4.6-0.5l-7-1.9L177.3,353.8
			z M180.8,369.6c1.5,0.4,2.9,0.3,4-0.2c1.1-0.6,1.9-1.6,2.3-3.1v-0.1c0.4-1.5,0.2-2.7-0.5-3.8c-0.7-1.1-1.8-1.8-3.4-2.2l-2.1-0.6
			l-2.5,9.4L180.8,369.6z"/>
		<path class="st0" d="M208,366.8l-5.5-1.5l1.2-4.5l16.1,4.3l-1.2,4.5l-5.5-1.5l-3.7,13.9l-5.1-1.4L208,366.8z"/>
		<path class="st0" d="M222,365.8l5.1,1.4l-1.8,6.9l6.5,1.8l1.8-6.9l5.1,1.4l-4.9,18.4l-5.1-1.4l1.9-7l-6.5-1.8l-1.9,7l-5.1-1.4
			L222,365.8z"/>
		<path class="st0" d="M242.1,371.1l14.8,4l-1.2,4.3l-9.8-2.6l-0.7,2.8l8.8,2.4l-1.1,4l-8.8-2.4l-0.8,2.9l9.9,2.6l-1.2,4.3l-14.9-4
			L242.1,371.1z"/>
		<path class="st0" d="M73.2,352.1l14.8,4l-1.2,4.4l-9.8-2.6l-0.7,2.8l8.8,2.4l-1.1,4.1l-8.8-2.4l-0.8,3l9.9,2.7l-1.2,4.4l-14.9-4
			L73.2,352.1z"/>
		<path class="st0" d="M89.3,356.5L95,358l1.1,12.9l7.3-10.7l5.6,1.5l-12.4,16.7l-4.7-1.3L89.3,356.5z"/>
		<path class="st0" d="M110.7,362.3l14.8,4l-1.2,4.4l-9.8-2.6l-0.7,2.8l8.8,2.4l-1.1,4.1l-8.8-2.4l-0.8,3l9.9,2.7l-1.2,4.4l-14.9-4
			L110.7,362.3z"/>
		<path class="st0" d="M128.3,367l4.8,1.3l5,11.9l2.6-9.9l5,1.4l-4.9,18.6l-4.5-1.2l-5.2-12.4l-2.7,10.2l-5-1.4L128.3,367z"/>
		<path class="st0" d="M152.2,378.4l-5.5-1.5l1.2-4.5l16.1,4.4l-1.2,4.5l-5.5-1.5l-3.7,14.1l-5.1-1.4L152.2,378.4z"/>
		<path class="st0" d="M173.6,379.3l5.1,1.4l-1.8,7l6.5,1.8l1.8-7l5.1,1.4l-4.9,18.6l-5.1-1.4l1.9-7.1l-6.5-1.8l-1.9,7.1l-5.1-1.4
			L173.6,379.3z"/>
		<path class="st0" d="M197.8,406.3c-1.4-0.4-2.7-1-3.7-1.8c-1.1-0.8-1.9-1.8-2.6-2.9c-0.6-1.1-1.1-2.3-1.3-3.6
			c-0.2-1.3-0.1-2.6,0.2-4v-0.1c0.4-1.3,0.9-2.5,1.7-3.6c0.8-1,1.8-1.9,2.9-2.5c1.1-0.6,2.4-1,3.7-1.2s2.7-0.1,4.1,0.3
			c1.4,0.4,2.7,1,3.7,1.8c1.1,0.8,1.9,1.8,2.6,2.9c0.6,1.1,1.1,2.3,1.3,3.6c0.2,1.3,0.1,2.6-0.2,4v0.1c-0.4,1.3-0.9,2.5-1.7,3.6
			s-1.8,1.9-2.9,2.5s-2.4,1-3.7,1.2S199.2,406.7,197.8,406.3z M199.1,401.6c0.7,0.2,1.4,0.2,2,0.1c0.7-0.1,1.2-0.3,1.8-0.7
			c0.5-0.3,1-0.8,1.4-1.3s0.7-1.1,0.9-1.8v-0.1c0.2-0.7,0.2-1.3,0.2-2c-0.1-0.7-0.3-1.3-0.6-1.9s-0.7-1.1-1.2-1.5s-1.1-0.7-1.8-0.9
			c-0.7-0.2-1.4-0.2-2-0.1s-1.2,0.3-1.8,0.7c-0.5,0.3-1,0.8-1.4,1.3s-0.7,1.2-0.8,1.8v0.1c-0.2,0.7-0.2,1.3-0.2,2
			c0.1,0.7,0.2,1.3,0.5,1.9s0.7,1.1,1.2,1.5C197.8,401.1,198.4,401.4,199.1,401.6z"/>
		<path class="st0" d="M215.4,390.7l8.7,2.4c1.4,0.4,2.6,0.9,3.5,1.5s1.6,1.3,2,2.1c0.8,1.4,1,3,0.5,4.8v0.1c-0.4,1.4-1,2.5-2,3.3
			c-0.9,0.8-2,1.2-3.3,1.4l2.7,7.7l-5.9-1.6l-2.2-6.7h-0.1l-2.2-0.6l-1.5,5.6l-5.1-1.4L215.4,390.7z M221.5,401.9
			c0.9,0.2,1.6,0.2,2.2,0c0.6-0.3,1-0.7,1.1-1.4v-0.1c0.2-0.7,0.1-1.4-0.3-1.9c-0.4-0.5-1-0.9-1.9-1.1l-3.3-0.9l-1.2,4.5
			L221.5,401.9z"/>
		<path class="st0" d="M234.4,395.8l5.1,1.4l-4.9,18.6l-5.1-1.4L234.4,395.8z"/>
		<path class="st0" d="M238.4,412.9l12-8l-8.9-2.4l1.2-4.4l16,4.3l-1,3.8l-12,8l9.2,2.5l-1.2,4.4l-16.3-4.4L238.4,412.9z"/>
		<path class="st0" d="M265.5,424.7c-1.4-0.4-2.7-1-3.7-1.8c-1.1-0.8-1.9-1.8-2.6-2.9c-0.6-1.1-1.1-2.3-1.3-3.6
			c-0.2-1.3-0.1-2.6,0.2-4v-0.1c0.4-1.3,0.9-2.5,1.7-3.6c0.8-1,1.8-1.9,2.9-2.5s2.4-1,3.7-1.2c1.3-0.2,2.7-0.1,4.1,0.3
			s2.7,1,3.7,1.8c1.1,0.8,1.9,1.8,2.6,2.9c0.6,1.1,1.1,2.3,1.3,3.6c0.2,1.3,0.1,2.6-0.2,4v0.1c-0.4,1.3-0.9,2.5-1.7,3.6
			c-0.8,1-1.8,1.9-2.9,2.5s-2.4,1-3.7,1.2S266.9,425,265.5,424.7z M266.8,420c0.7,0.2,1.4,0.2,2,0.1c0.7-0.1,1.2-0.3,1.8-0.7
			c0.5-0.3,1-0.8,1.4-1.3s0.7-1.1,0.9-1.8v-0.1c0.2-0.7,0.2-1.3,0.2-2c-0.1-0.7-0.3-1.3-0.6-1.9c-0.3-0.6-0.7-1.1-1.2-1.5
			s-1.1-0.7-1.8-0.9c-0.7-0.2-1.4-0.2-2-0.1s-1.2,0.3-1.8,0.7c-0.5,0.3-1,0.8-1.4,1.3s-0.7,1.2-0.8,1.8v0.1c-0.2,0.7-0.2,1.3-0.2,2
			c0.1,0.7,0.2,1.3,0.5,1.9s0.7,1.1,1.2,1.5S266.1,419.8,266.8,420z"/>
		<path class="st0" d="M283.1,409.1l4.8,1.3l5,11.9l2.6-9.9l5,1.4l-4.9,18.6l-4.5-1.2l-5.2-12.4l-2.7,10.2l-5-1.4L283.1,409.1z"/>
		<g>
			<polygon class="st0" points="117.9,182.8 126.9,173.7 130.2,186 			"/>
		</g>
		<g>
			<path class="st0" d="M359.1,139l16.1,4.2L349.8,50l-54.6,55c0.2,0,0.5,0,0.7,0C322.4,104.7,345.7,118.3,359.1,139z"/>
		</g>
		<g>
			<polygon class="st0" points="308,252.5 273.9,127.5 271.4,118 264.5,125 223.7,166.1 134,256.5 322.6,306.2 			"/>
		</g>
	</g>
	<g>
		<circle cx="2.4" cy="0.4" r="0.4"/>
		<circle cx="501.4" cy="0.4" r="0.4"/>
		<circle cx="501.4" cy="499.4" r="0.4"/>
		<circle cx="2.4" cy="499.4" r="0.4"/>
	</g>
</g>
<g>
	<circle cx="0.4" cy="0.4" r="0.4"/>
	<circle cx="499.4" cy="0.4" r="0.4"/>
	<circle cx="499.4" cy="499.4" r="0.4"/>
	<circle cx="0.4" cy="499.4" r="0.4"/>
</g>
<g>
	<circle cx="1.4" cy="0.4" r="0.4"/>
	<circle cx="500.4" cy="0.4" r="0.4"/>
	<circle cx="500.4" cy="499.4" r="0.4"/>
	<circle cx="1.4" cy="499.4" r="0.4"/>
</g>
</svg>
