<?xml version="1.0" encoding="utf-8"?>
<!-- Generator: Adobe Illustrator 21.0.0, SVG Export Plug-In . SVG Version: 6.00 Build 0)  -->
<svg version="1.1" id="Layer_1" xmlns="http://www.w3.org/2000/svg" xmlns:xlink="http://www.w3.org/1999/xlink" x="0px" y="0px"
	 viewBox="0 0 243 218.8" style="enable-background:new 0 0 243 218.8;" xml:space="preserve">
<style type="text/css">
	.st0{fill:#FFFFFF;}
	.st1{fill:none;}
	.st2{fill:#982CFF;}
</style>
<g>
	<g>
		<g>
			<path class="st0" d="M38.7,132.8l7.5,2c1.1,0.3,2.1,0.7,2.9,1.2s1.5,1.1,2,1.8s0.8,1.5,0.9,2.3s0.1,1.8-0.2,2.7l0,0.1
				c-0.3,1-0.7,1.9-1.3,2.6s-1.3,1.2-2.1,1.6c-0.8,0.4-1.7,0.5-2.7,0.6c-1,0-2-0.1-3.1-0.4l-2.4-0.7l-1.4,5l-4.9-1.3L38.7,132.8z
				 M43.5,143.5c0.9,0.2,1.6,0.2,2.2-0.1c0.6-0.3,1-0.8,1.2-1.5l0-0.1c0.2-0.8,0.1-1.4-0.3-1.9s-1-0.9-1.9-1.2l-2.3-0.6l-1.3,4.7
				L43.5,143.5z"/>
		</g>
		<g>
			<path class="st0" d="M61.7,138.9l4.7,1.3l2.7,19.7l-5.2-1.4l-0.4-3.5l-6.8-1.8l-2.1,2.8l-5.1-1.4L61.7,138.9z M63.1,150.9
				l-0.6-5.5l-3.3,4.5L63.1,150.9z"/>
		</g>
		<g>
			<path class="st0" d="M75.6,142.8l8.3,2.2c1.4,0.4,2.5,0.8,3.3,1.4s1.5,1.3,1.9,2c0.8,1.3,0.9,2.8,0.5,4.5l0,0
				c-0.4,1.4-1,2.4-1.9,3.1c-0.9,0.7-2,1.2-3.2,1.3l2.5,7.3l-5.6-1.5l-2.1-6.3l0,0l-2.1-0.6l-1.4,5.3l-4.9-1.3L75.6,142.8z
				 M81.4,153.4c0.8,0.2,1.5,0.2,2.1,0c0.6-0.3,0.9-0.7,1.1-1.3l0,0c0.2-0.7,0.1-1.3-0.3-1.8s-1-0.8-1.8-1l-3.2-0.9l-1.1,4.2
				L81.4,153.4z"/>
		</g>
		<g>
			<path class="st0" d="M96.7,153.1l-5.3-1.4l1.2-4.3l15.4,4.2l-1.2,4.3l-5.3-1.4L98,167.7l-4.9-1.3L96.7,153.1z"/>
		</g>
		<g>
			<path class="st0" d="M110.2,152.2l4.6,1.2l4.7,11.2l2.5-9.3l4.8,1.3l-4.8,17.6l-4.3-1.2l-4.9-11.7l-2.6,9.6l-4.8-1.3L110.2,152.2
				z"/>
		</g>
		<g>
			<path class="st0" d="M129.9,157.5l14.1,3.8l-1.1,4.1l-9.3-2.5l-0.7,2.7l8.4,2.3l-1,3.8l-8.4-2.3l-0.8,2.8l9.4,2.6l-1.1,4.1
				l-14.2-3.8L129.9,157.5z"/>
		</g>
		<g>
			<path class="st0" d="M146.6,162l8.3,2.2c1.4,0.4,2.5,0.8,3.3,1.4c0.8,0.6,1.5,1.3,1.9,2c0.8,1.3,0.9,2.8,0.5,4.5l0,0.1
				c-0.4,1.4-1,2.4-1.9,3.1c-0.9,0.7-2,1.2-3.2,1.3l2.5,7.3l-5.6-1.5l-2.1-6.3l0,0l-2.1-0.6l-1.4,5.3l-4.9-1.3L146.6,162z
				 M152.4,172.6c0.8,0.2,1.5,0.2,2.1,0c0.6-0.3,0.9-0.7,1.1-1.3l0,0c0.2-0.7,0.1-1.3-0.3-1.8s-1-0.8-1.8-1l-3.2-0.9l-1.1,4.2
				L152.4,172.6z"/>
		</g>
		<g>
			<path class="st0" d="M166.7,186.6c-1.6-0.4-3-1.1-4.3-1.9s-2.3-1.9-3.2-3.2l3.6-2.5c1.4,1.9,3.1,3.1,5.1,3.6
				c0.7,0.2,1.2,0.2,1.6,0.1c0.4-0.1,0.7-0.4,0.8-0.8l0,0c0-0.2,0.1-0.4,0-0.5c0-0.2-0.2-0.3-0.4-0.5c-0.2-0.2-0.5-0.4-0.8-0.6
				c-0.3-0.2-0.8-0.5-1.4-0.8c-0.9-0.5-1.7-0.9-2.4-1.4c-0.7-0.5-1.3-1-1.8-1.6c-0.5-0.6-0.8-1.2-1-1.9c-0.2-0.7-0.1-1.5,0.1-2.4
				l0,0c0.2-0.8,0.6-1.5,1.1-2.1c0.5-0.6,1.1-1.1,1.8-1.4s1.5-0.5,2.5-0.6c0.9,0,1.9,0.1,2.9,0.4c1.5,0.4,2.8,1,3.9,1.7
				c1.1,0.7,2,1.6,2.7,2.6l-3.4,2.8c-0.6-0.8-1.4-1.4-2.1-2c-0.8-0.5-1.5-0.9-2.3-1.1c-0.6-0.2-1.1-0.2-1.4,0
				c-0.4,0.1-0.6,0.4-0.7,0.7l0,0.1c-0.1,0.2-0.1,0.4,0,0.6c0.1,0.2,0.2,0.4,0.4,0.5c0.2,0.2,0.5,0.4,0.8,0.6
				c0.4,0.2,0.8,0.5,1.4,0.8c0.9,0.5,1.8,1,2.5,1.5s1.3,1.1,1.8,1.6c0.5,0.6,0.8,1.2,0.9,1.9c0.1,0.7,0.1,1.4-0.1,2.2l0,0
				c-0.2,0.9-0.6,1.7-1.2,2.3c-0.5,0.6-1.2,1.1-1.9,1.4s-1.6,0.5-2.5,0.5C168.8,187.1,167.8,186.9,166.7,186.6z"/>
		</g>
	</g>
	<g>
		<path class="st1" d="M156.7,70.4l0.9,3.2c-0.2-1-0.4-2-0.8-3C156.8,70.6,156.8,70.5,156.7,70.4z"/>
		<path class="st2" d="M145,57.2c-3.2-1.6-6.7-2.4-10.3-2.4c-2.5,0-5.1,0.4-7.6,1.3c-5.9,2-10.7,6.2-13.4,11.8
			c-5.7,11.6-0.9,25.6,10.7,31.2c5.6,2.7,11.9,3.1,17.8,1.1c5.9-2,10.7-6.2,13.4-11.8c2.3-4.7,2.9-9.8,1.9-14.8l-0.9-3.2
			C154.7,64.6,150.5,59.9,145,57.2z"/>
		<path class="st2" d="M161.7,88.7c-0.3,0.8-0.6,1.5-1,2.2c-3.4,6.9-9.3,12.1-16.6,14.7c-3.1,1.1-6.2,1.6-9.4,1.6
			c-4.4,0-8.7-1-12.7-3c-0.5-0.3-1-0.5-1.5-0.8c1.2,3.2,1.8,6.6,1.6,10.2c-0.6,13.2-10.9,23.8-23.7,24.9l23.5,6.2
			c6.3-20.4,25.5-33.6,46.2-32.8L161.7,88.7z"/>
		<path class="st2" d="M69.8,111.4c0.6-14.4,12.8-25.6,27.2-25c3.9,0.2,7.7,1.2,10.9,2.9c-3.1-7.4-3.1-16.1,0.7-23.9
			c3.4-6.9,9.3-12.1,16.6-14.7c7.3-2.5,15.2-2,22.1,1.4c1.9,0.9,3.6,2,5.2,3.3l-9.3-34.3L41.7,123.6L81,134
			C73.9,129.1,69.4,120.7,69.8,111.4z"/>
		<path class="st0" d="M122.1,113.6c0.2-3.6-0.4-7.1-1.6-10.2c0.5,0.3,1,0.5,1.5,0.8c4,2,8.4,3,12.7,3c3.2,0,6.3-0.5,9.4-1.6
			c7.3-2.5,13.2-7.7,16.6-14.7c0.4-0.7,0.7-1.5,1-2.2l-4.1-15.1c1,5,0.4,10.2-1.9,14.8c-2.7,5.6-7.5,9.8-13.4,11.8
			c-5.9,2-12.2,1.6-17.8-1.1c-11.6-5.7-16.4-19.7-10.7-31.2c2.7-5.6,7.5-9.8,13.4-11.8c2.5-0.8,5-1.3,7.6-1.3c3.5,0,7,0.8,10.3,2.4
			c5.5,2.7,9.7,7.4,11.7,13.2l-4.1-14.9c-1.6-1.3-3.3-2.3-5.2-3.3c-6.9-3.4-14.8-3.9-22.1-1.4c-7.3,2.5-13.2,7.7-16.6,14.7
			c-3.8,7.8-3.8,16.4-0.7,23.9c-3.3-1.7-7-2.8-10.9-2.9c-14.4-0.6-26.6,10.6-27.2,25c-0.4,9.3,4.1,17.6,11.2,22.6l17.3,4.6
			C111.2,137.4,121.5,126.9,122.1,113.6z"/>
	</g>
	<g>
		<polygon class="st0" points="128,79.3 170.7,36.3 186.6,94.6 		"/>
	</g>
</g>
</svg>
