<?xml version="1.0" encoding="utf-8"?>
<!-- Generator: Adobe Illustrator 21.0.0, SVG Export Plug-In . SVG Version: 6.00 Build 0)  -->
<svg version="1.1" id="Layer_1" xmlns="http://www.w3.org/2000/svg" xmlns:xlink="http://www.w3.org/1999/xlink" x="0px" y="0px"
	 viewBox="0 0 266 262" style="enable-background:new 0 0 266 262;" xml:space="preserve">
<style type="text/css">
	.st0{fill:#FFFFFF;}
	.st1{fill:#17FFDD;}
</style>
<g>
	<g>
		<g>
			<path class="st0" d="M61.4,162.7c-1.4-0.4-2.7-1-3.8-1.7c-1.2-0.7-2-1.7-2.8-2.8l3.2-2.2c1.2,1.7,2.8,2.8,4.5,3.3
				c0.6,0.2,1.1,0.2,1.4,0.1c0.4-0.1,0.6-0.4,0.7-0.7l0,0c0-0.2,0.1-0.4,0-0.4c0-0.2-0.2-0.3-0.4-0.4c-0.2-0.2-0.4-0.4-0.7-0.5
				c-0.3-0.2-0.7-0.4-1.2-0.7c-0.8-0.4-1.5-0.8-2.1-1.2c-0.6-0.4-1.2-0.9-1.6-1.4s-0.7-1.1-0.9-1.7c-0.2-0.6-0.1-1.3,0.1-2.1l0,0
				c0.2-0.7,0.5-1.3,1-1.9c0.4-0.5,1-1,1.6-1.2c0.6-0.3,1.3-0.4,2.2-0.5c0.9-0.1,1.7,0.1,2.6,0.4c1.3,0.4,2.5,0.9,3.5,1.5
				c1,0.6,1.8,1.4,2.4,2.3l-3,2.5c-0.5-0.7-1.2-1.2-1.9-1.8c-0.7-0.4-1.3-0.8-2-1c-0.5-0.2-1-0.2-1.2,0c-0.3,0.2-0.5,0.4-0.6,0.6
				v0.1c-0.1,0.2-0.1,0.4,0,0.5c0.1,0.2,0.2,0.4,0.4,0.4c0.2,0.2,0.4,0.4,0.7,0.5c0.4,0.2,0.7,0.4,1.2,0.7c0.8,0.4,1.6,0.9,2.2,1.3
				c0.6,0.4,1.2,1,1.6,1.4s0.7,1.1,0.8,1.7c0.1,0.6,0.1,1.2-0.1,2l0,0c-0.2,0.8-0.5,1.5-1.1,2c-0.4,0.5-1.1,1-1.7,1.2
				c-0.6,0.3-1.4,0.4-2.2,0.4C63.2,163,62.3,162.9,61.4,162.7z"/>
		</g>
		<g>
			<path class="st0" d="M77.3,167c-1.2-0.3-2.1-0.8-3-1.4c-0.9-0.7-1.6-1.4-2.1-2.4c-0.5-0.9-0.9-2-1-3c-0.1-1.1-0.1-2.2,0.3-3.4
				l0,0c0.3-1.2,0.8-2.1,1.5-3s1.5-1.6,2.4-2.1c0.9-0.5,2-0.9,3.1-1.1c1.2-0.2,2.3-0.1,3.5,0.3c0.8,0.2,1.5,0.5,2.1,0.8
				c0.6,0.4,1.2,0.7,1.6,1.2s0.9,0.9,1.2,1.4c0.4,0.5,0.6,1.1,0.8,1.6l-3.9,1.6c-0.3-0.7-0.6-1.2-1.1-1.8c-0.4-0.4-1.1-0.8-1.8-1
				c-0.5-0.2-1.1-0.2-1.6-0.1c-0.5,0.1-1,0.3-1.4,0.5c-0.4,0.3-0.8,0.6-1.2,1.1c-0.4,0.4-0.5,1-0.7,1.5v0.1
				c-0.2,0.6-0.2,1.2-0.2,1.7c0.1,0.5,0.2,1.1,0.4,1.5c0.3,0.4,0.5,0.9,0.9,1.2c0.4,0.3,0.9,0.6,1.4,0.7c0.4,0.1,0.8,0.2,1.2,0.2
				c0.4,0,0.7-0.1,1-0.2c0.4-0.1,0.6-0.3,1-0.4c0.3-0.2,0.6-0.4,1-0.5l2.7,3.2c-0.5,0.4-1.1,0.8-1.6,1.1c-0.5,0.4-1.2,0.5-1.8,0.7
				c-0.6,0.2-1.3,0.3-2,0.3C79,167.4,78.2,167.2,77.3,167z"/>
		</g>
		<g>
			<path class="st0" d="M90.3,153.4l4.4,1.2l-1.6,5.9l5.5,1.5l1.6-5.9l4.4,1.2l-4.3,15.6l-4.4-1.2l1.6-6l-5.5-1.5l-1.6,6l-4.4-1.2
				L90.3,153.4z"/>
		</g>
		<g>
			<path class="st0" d="M107.4,158.1l12.5,3.4l-1,3.6l-8.3-2.2l-0.6,2.4l7.5,2l-0.9,3.4l-7.5-2l-0.7,2.5l8.4,2.3l-1,3.6l-12.6-3.5
				L107.4,158.1z"/>
		</g>
		<g>
			<path class="st0" d="M122.2,162.1l6,1.6c1.4,0.4,2.6,0.9,3.6,1.6s1.8,1.4,2.3,2.3s0.9,1.9,1.1,2.9c0.2,1.1,0.1,2.1-0.3,3.3l0,0
				c-0.3,1.2-0.8,2.1-1.4,2.9c-0.6,0.9-1.5,1.5-2.4,2s-2,0.8-3.3,0.9s-2.5-0.1-3.9-0.4l-6-1.6L122.2,162.1z M125.1,175.6
				c1.3,0.4,2.4,0.3,3.4-0.2s1.6-1.3,2-2.6l0,0c0.4-1.2,0.2-2.3-0.4-3.2c-0.5-0.9-1.5-1.5-2.8-1.9l-1.8-0.4l-2.1,7.9L125.1,175.6z"
				/>
		</g>
		<g>
			<path class="st0" d="M142,184.5c-1.2-0.3-2-0.7-2.9-1.2c-0.8-0.5-1.4-1.2-2-2c-0.4-0.8-0.7-1.6-0.8-2.6c-0.1-1,0-2.1,0.4-3.3
				l2.4-8.8l4.4,1.2l-2.4,8.7c-0.3,1.2-0.3,2,0.1,2.8c0.4,0.7,1,1.2,1.9,1.4c0.9,0.3,1.6,0.2,2.3-0.2c0.7-0.4,1.2-1.2,1.4-2.2
				l2.4-8.8l4.4,1.2l-2.3,8.6c-0.4,1.2-0.8,2.3-1.4,3.1c-0.6,0.8-1.3,1.4-2,1.9c-0.7,0.4-1.7,0.6-2.7,0.7
				C144.2,185,143.1,184.9,142,184.5z"/>
		</g>
		<g>
			<path class="st0" d="M156.2,171.4l4.4,1.2l-3.2,11.8l7.6,2l-1.1,3.8l-11.9-3.2L156.2,171.4z"/>
		</g>
		<g>
			<path class="st0" d="M169.9,175.1l12.5,3.4l-1,3.6l-8.3-2.2l-0.6,2.4l7.5,2l-0.9,3.4l-7.5-2l-0.7,2.5l8.4,2.3l-1,3.6l-12.6-3.5
				L169.9,175.1z"/>
		</g>
	</g>
	<g>
		<path class="st1" d="M173,126.1l-22-80.9l-90.6,91.3l71.4,18.8C137.4,137.1,154.6,125.4,173,126.1z"/>
	</g>
	<g>
		<polygon class="st0" points="137.2,98.4 170.3,65 182.6,110.3 		"/>
	</g>
	<path class="st0" d="M166.4,101.9c-2-2-4.8-3.3-7.8-3.3c-6,0-11,5-11,11c0,0.9,0.1,1.8,0.4,2.7c-2.5-1.7-5.5-2.6-8.7-2.6
		c-5.1,0-9.6,2.4-12.5,6.1c-2.2-10.5-11.4-18.3-22.5-18.3c-2.1,0-4.2,0.3-6.1,0.8L82,114.6c-0.5,1.9-0.8,3.9-0.8,5.9
		c0,12.7,10.3,23,23,23c8.8,0,16.4-5,20.3-12.2c2.3,5.9,8,10,14.7,10c0,0,0,0,0,0c4.1-5.1,9.4-9,15.2-11.7c0.4-1.3,0.5-2.7,0.5-4.1
		c0-2.1-0.4-4.1-1.2-6c1.4,0.7,3,1.1,4.7,1.1c5.2,0,9.5-3.5,10.7-8.3L166.4,101.9z M104.2,137.3c-9.2,0-16.8-7.6-16.8-16.8
		c0-9.2,7.6-16.8,16.8-16.8c9.2,0,16.8,7.6,16.8,16.8C121,129.7,113.4,137.3,104.2,137.3z M139.2,135c-5.2,0-9.6-4.4-9.6-9.6
		c0-5.2,4.3-9.6,9.6-9.6s9.6,4.4,9.6,9.6C148.8,130.7,144.4,135,139.2,135z M158.6,114.4c-2.7,0-4.8-2.1-4.8-4.8s2.1-4.8,4.8-4.8
		c2.7,0,4.9,2.1,4.8,4.8C163.4,112.3,161.2,114.4,158.6,114.4z"/>
</g>
</svg>
