<?xml version="1.0" encoding="utf-8"?>
<!-- Generator: Adobe Illustrator 21.0.0, SVG Export Plug-In . SVG Version: 6.00 Build 0)  -->
<svg version="1.1" id="Layer_1" xmlns="http://www.w3.org/2000/svg" xmlns:xlink="http://www.w3.org/1999/xlink" x="0px" y="0px"
	 viewBox="0 0 256 258" style="enable-background:new 0 0 256 258;" xml:space="preserve">
<style type="text/css">
	.st0{fill:#FF00C3;}
	.st1{fill:#FFFFFF;}
</style>
<g>
	<path class="st0" d="M181.5,126.2l-22.1-81l-90.7,91.5l71.5,18.9C145.9,137.2,163.1,125.5,181.5,126.2z"/>
	<polygon class="st1" points="145.2,98.9 178.7,65.1 191.1,110.9 	"/>
	
		<ellipse transform="matrix(0.2748 -0.9615 0.9615 0.2748 -11.7248 192.7327)" class="st1" cx="121.9" cy="104.1" rx="6.4" ry="6.4"/>
	
		<ellipse transform="matrix(0.2748 -0.9615 0.9615 0.2748 -2.8371 215.3761)" class="st1" cx="141.4" cy="109.6" rx="6.4" ry="6.4"/>
	<ellipse transform="matrix(0.2748 -0.9615 0.9615 0.2748 5.8666 238.2428)" class="st1" cx="160.9" cy="115.2" rx="6.4" ry="6.4"/>
	<g>
		<path class="st1" d="M68.9,162.5c-1.4-0.4-2.7-1-3.8-1.8c-1.2-0.8-2-1.7-2.8-2.8l3.2-2.2c1.2,1.7,2.8,2.8,4.5,3.3
			c0.6,0.2,1.1,0.2,1.4,0.1c0.4-0.1,0.6-0.4,0.7-0.6l0,0c0.1-0.2,0.1-0.4,0-0.4c0-0.2-0.2-0.3-0.4-0.4c-0.2-0.2-0.4-0.4-0.7-0.5
			s-0.7-0.4-1.2-0.7c-0.8-0.4-1.5-0.8-2.1-1.2s-1.2-0.9-1.6-1.4c-0.4-0.5-0.7-1.1-0.9-1.7c-0.2-0.6-0.1-1.3,0.1-2.1l0,0
			c0.2-0.7,0.5-1.3,1-1.9c0.4-0.5,1-1,1.6-1.2c0.6-0.3,1.4-0.4,2.2-0.5c0.8,0,1.7,0.1,2.6,0.4c1.3,0.4,2.5,0.9,3.5,1.5
			c1,0.6,1.8,1.4,2.4,2.3l-3,2.5c-0.5-0.7-1.2-1.2-1.9-1.8c-0.7-0.4-1.3-0.8-2-1c-0.5-0.2-1-0.2-1.2,0c-0.4,0.1-0.5,0.4-0.6,0.6l0,0
			c-0.1,0.2-0.1,0.4,0,0.5c0.1,0.2,0.2,0.4,0.4,0.4c0.2,0.2,0.4,0.4,0.7,0.5c0.4,0.2,0.7,0.4,1.2,0.7c0.8,0.4,1.6,0.9,2.2,1.3
			s1.2,1,1.6,1.4c0.4,0.5,0.7,1.1,0.8,1.7c0.1,0.6,0.1,1.2-0.1,2v0.1c-0.2,0.8-0.5,1.5-1.1,2c-0.4,0.5-1.1,1-1.7,1.2
			c-0.7,0.3-1.4,0.4-2.2,0.4C70.7,162.8,69.8,162.7,68.9,162.5z"/>
		<path class="st1" d="M81.7,148.9l6.7,1.8c1,0.3,1.9,0.6,2.6,1.1s1.3,1,1.8,1.6c0.4,0.6,0.7,1.3,0.8,2s0.1,1.6-0.2,2.4l0,0
			c-0.3,0.9-0.6,1.7-1.2,2.3c-0.5,0.6-1.2,1.1-1.9,1.4c-0.7,0.4-1.5,0.4-2.4,0.5s-1.8-0.1-2.8-0.4L83,161l-1.2,4.4l-4.4-1.2
			L81.7,148.9z M85.9,158.4c0.8,0.2,1.4,0.2,2-0.1c0.5-0.3,0.9-0.7,1.1-1.3v-0.1c0.2-0.7,0.1-1.2-0.3-1.7c-0.4-0.4-0.9-0.8-1.7-1.1
			l-2-0.5l-1.2,4.2L85.9,158.4z"/>
		<path class="st1" d="M96.7,153l12.5,3.4l-1,3.6l-8.3-2.2l-0.6,2.4l7.5,2l-0.9,3.4l-7.5-2l-0.7,2.5l8.4,2.3l-1,3.6l-12.7-3.4
			L96.7,153z"/>
		<path class="st1" d="M117,158.4l4.2,1.2l2.4,17.5l-4.6-1.2l-0.4-3.1l-6-1.6l-1.9,2.5l-4.5-1.2L117,158.4z M118.1,169l-0.5-4.9
			l-2.9,4L118.1,169z"/>
		<path class="st1" d="M129.2,161.9l4.4,1.2l-1.7,6.3l7.1-4.9l5.2,1.4l-7.7,5.1l3.6,10.6l-5.2-1.4l-2.3-6.9l-2,1.3l-1.1,4l-4.4-1.2
			L129.2,161.9z"/>
		<path class="st1" d="M145.6,166.3l12.5,3.4l-1,3.6l-8.3-2.2l-0.6,2.4l7.5,2l-0.9,3.4l-7.5-2l-0.7,2.5l8.4,2.3l-1,3.6l-12.6-3.5
			L145.6,166.3z"/>
		<path class="st1" d="M160.5,170.3l7.4,2c1.2,0.4,2.2,0.7,2.9,1.2s1.3,1.2,1.7,1.8c0.7,1.2,0.8,2.5,0.4,4l0,0
			c-0.4,1.2-0.9,2.1-1.7,2.8c-0.8,0.6-1.8,1-2.8,1.2l2.2,6.5l-5-1.3l-1.9-5.6h-0.1l-1.9-0.5l-1.2,4.7l-4.4-1.2L160.5,170.3z
			 M165.6,179.8c0.7,0.2,1.3,0.2,1.9,0c0.5-0.3,0.8-0.6,1-1.2v-0.1c0.2-0.6,0.1-1.2-0.3-1.6c-0.4-0.4-0.9-0.7-1.6-0.9l-2.8-0.8
			l-1,3.7L165.6,179.8z"/>
		<path class="st1" d="M178.4,192.3c-1.4-0.4-2.7-1-3.8-1.8c-1.2-0.8-2-1.7-2.8-2.8l3.2-2.2c1.2,1.7,2.8,2.8,4.5,3.3
			c0.6,0.2,1.1,0.2,1.4,0.1c0.4-0.1,0.6-0.4,0.7-0.6l0,0c0.1-0.2,0.1-0.4,0-0.4c0-0.2-0.2-0.3-0.4-0.4c-0.2-0.2-0.4-0.4-0.7-0.5
			c-0.3-0.2-0.7-0.4-1.2-0.7c-0.8-0.4-1.5-0.8-2.1-1.2c-0.6-0.4-1.2-0.9-1.6-1.4c-0.4-0.5-0.7-1.1-0.9-1.7c-0.2-0.6-0.1-1.3,0.1-2.1
			l0,0c0.2-0.7,0.5-1.3,1-1.9c0.4-0.5,1-1,1.6-1.2c0.6-0.3,1.4-0.4,2.2-0.5c0.8,0,1.7,0.1,2.6,0.4c1.3,0.4,2.5,0.9,3.5,1.5
			c1,0.6,1.8,1.4,2.4,2.3l-3,2.5c-0.5-0.7-1.2-1.2-1.9-1.8c-0.7-0.4-1.3-0.8-2-1c-0.5-0.2-1-0.2-1.2,0c-0.4,0.1-0.5,0.4-0.6,0.6v0.1
			c-0.1,0.2-0.1,0.4,0,0.5c0.1,0.2,0.2,0.4,0.4,0.4c0.2,0.2,0.4,0.4,0.7,0.5c0.4,0.2,0.7,0.4,1.2,0.7c0.8,0.4,1.6,0.9,2.2,1.3
			c0.6,0.4,1.2,1,1.6,1.4c0.4,0.5,0.7,1.1,0.8,1.7c0.1,0.6,0.1,1.2-0.1,2v0.1c-0.2,0.8-0.5,1.5-1.1,2c-0.5,0.5-1.1,1-1.7,1.2
			c-0.7,0.3-1.4,0.4-2.2,0.4C180.2,192.6,179.3,192.5,178.4,192.3z"/>
	</g>
</g>
</svg>
