<?xml version="1.0" encoding="utf-8"?>
<!-- Generator: Adobe Illustrator 21.0.0, SVG Export Plug-In . SVG Version: 6.00 Build 0)  -->
<svg version="1.1" id="Layer_1" xmlns="http://www.w3.org/2000/svg" xmlns:xlink="http://www.w3.org/1999/xlink" x="0px" y="0px"
	 viewBox="0 0 235.7 226.9" style="enable-background:new 0 0 235.7 226.9;" xml:space="preserve">
<style type="text/css">
	.st0{fill:#FF00C3;}
	.st1{fill:#FFFFFF;}
</style>
<g>
	<g>
		<path class="st0" d="M80.7,126.4c-0.8,0.5-1.4,1.3-1.6,2.2c-0.2,0.9-0.1,1.9,0.4,2.7c1,1.7,3.2,2.2,4.8,1.2c1.7-1,2.2-3.2,1.2-4.8
			c-0.7-1.1-1.8-1.7-3-1.7C81.9,125.9,81.3,126.1,80.7,126.4z"/>
		<path class="st0" d="M138.3,31.5L85.9,84.3l28.2,6.5l-28.7,30.6c1.8,0.6,3.4,1.9,4.5,3.7c2.4,4,1.1,9.3-2.9,11.7l0,0
			c-1.4,0.8-2.9,1.2-4.4,1.2c-2.9,0-5.7-1.5-7.3-4.2c-1.2-2-1.5-4.2-0.9-6.5s1.9-4.1,3.9-5.2c1.6-1,3.4-1.3,5.1-1.2l-7.9-26.1
			l-38.9,39.2l80.3,21.2c6.3-20.5,25.6-33.7,46.2-32.9L138.3,31.5z"/>
		<path class="st1" d="M78.1,122.1c-2,1.2-3.3,3-3.9,5.2s-0.2,4.5,0.9,6.5c1.6,2.7,4.4,4.2,7.3,4.2c1.5,0,3-0.4,4.4-1.2l0,0
			c4-2.4,5.4-7.7,2.9-11.7c-1.1-1.8-2.7-3-4.5-3.7L114,90.9l-28.2-6.5L75.4,94.9l7.9,26.1C81.5,120.8,79.7,121.2,78.1,122.1z
			 M85.5,127.7c1,1.7,0.5,3.8-1.2,4.8c-1.7,1-3.8,0.5-4.8-1.2c-0.5-0.8-0.6-1.8-0.4-2.7c0.2-0.9,0.8-1.7,1.6-2.2
			c0.6-0.3,1.2-0.5,1.8-0.5C83.7,125.9,84.9,126.6,85.5,127.7z"/>
	</g>
	<g>
		<path class="st1" d="M34.2,143.4l5.4,1.5l1,12.2l7-10l5.3,1.5L41,164.3l-4.5-1.2L34.2,143.4z"/>
		<path class="st1" d="M54.6,149l14.1,3.8l-1.1,4.1l-9.3-2.5l-0.7,2.7l8.4,2.3l-1,3.8l-8.4-2.3l-0.8,2.8l9.4,2.6l-1.1,4.1l-14.2-3.9
			L54.6,149z"/>
		<path class="st1" d="M71.4,153.5l4.6,1.2l4.7,11.2l2.5-9.3L88,158l-4.8,17.6l-4.3-1.2L74,162.7l-2.6,9.6l-4.8-1.3L71.4,153.5z"/>
		<path class="st1" d="M94.1,178.9c-1.3-0.3-2.3-0.8-3.3-1.4s-1.6-1.3-2.2-2.2s-0.8-1.8-0.9-2.9c-0.1-1.1,0-2.4,0.4-3.7l2.7-9.9
			l5,1.3l-2.6,9.8c-0.3,1.3-0.3,2.3,0.1,3.1c0.4,0.8,1.1,1.3,2.1,1.6c1,0.3,1.8,0.2,2.6-0.2c0.7-0.4,1.3-1.3,1.6-2.5l2.7-9.9l5,1.3
			l-2.6,9.7c-0.4,1.4-0.9,2.6-1.6,3.5c-0.7,0.9-1.5,1.6-2.3,2.1c-0.9,0.5-1.9,0.7-3,0.8C96.6,179.4,95.4,179.2,94.1,178.9z"/>
		<path class="st1" d="M110.1,164l14.1,3.8l-1.1,4.1l-9.3-2.5l-0.7,2.7l8.4,2.3l-1,3.8L112,176l-0.8,2.8l9.4,2.6l-1.1,4.1l-14.2-3.9
			L110.1,164z"/>
	</g>
	<polygon class="st1" points="123.1,89.2 165.6,46.4 181.4,104.5 	"/>
</g>
</svg>
