<?xml version="1.0" encoding="utf-8"?>
<!-- Generator: Adobe Illustrator 21.0.0, SVG Export Plug-In . SVG Version: 6.00 Build 0)  -->
<svg version="1.1" id="Layer_1" xmlns="http://www.w3.org/2000/svg" xmlns:xlink="http://www.w3.org/1999/xlink" x="0px" y="0px"
	 viewBox="0 0 272 258" style="enable-background:new 0 0 272 258;" xml:space="preserve">
<style type="text/css">
	.st0{fill:#FFFFFF;}
	.st1{fill:#982CFF;}
</style>
<g>
	<g>
		<path class="st0" d="M83,144.9l4.5,1.2l0.3,9.7l5.5-8.2l3.7,1l0.5,9.8l5.1-8.2l4.4,1.2l-9.4,14.2l-3.7-1.1l-0.8-9.7l-5.6,8.1
			l-3.7-1.1L83,144.9z"/>
		<path class="st0" d="M112.4,169.8c-1.2-0.4-2.2-0.8-3.2-1.5c-0.9-0.7-1.6-1.5-2.2-2.5c-0.5-0.9-0.9-1.9-1.1-3
			c-0.2-1.1-0.1-2.2,0.2-3.3v-0.1c0.3-1.2,0.8-2.1,1.5-3c0.7-0.9,1.5-1.6,2.5-2.1c1-0.5,2-0.9,3.1-1s2.3-0.1,3.5,0.3
			c1.2,0.4,2.2,0.8,3.2,1.5c0.9,0.7,1.6,1.5,2.2,2.5c0.6,1,0.9,1.9,1.1,3c0.2,1.1,0.1,2.2-0.2,3.3v0.1c-0.3,1.2-0.8,2.1-1.5,3
			c-0.7,0.9-1.5,1.6-2.5,2.1c-1,0.5-2,0.9-3.1,1S113.5,170.2,112.4,169.8z M113.4,166c0.6,0.2,1.2,0.2,1.7,0.1
			c0.5-0.1,1.1-0.3,1.5-0.5s0.8-0.6,1.2-1.1s0.5-1,0.7-1.5l0,0c0.2-0.5,0.2-1.2,0.2-1.7c0-0.5-0.2-1.1-0.4-1.6
			c-0.3-0.4-0.6-0.9-1.1-1.2c-0.4-0.4-1-0.6-1.5-0.8s-1.2-0.2-1.7-0.1c-0.5,0.1-1.1,0.3-1.5,0.5s-0.8,0.6-1.2,1.1s-0.5,1-0.7,1.5
			l0,0c-0.2,0.5-0.2,1.2-0.2,1.7c0,0.5,0.2,1.1,0.4,1.6c0.3,0.4,0.6,0.9,1,1.2C112.3,165.6,112.8,165.8,113.4,166z"/>
		<path class="st0" d="M127.3,156.9l7.3,2c1.2,0.4,2.2,0.7,2.9,1.2s1.3,1.2,1.7,1.8c0.7,1.2,0.8,2.5,0.4,4l0,0
			c-0.4,1.2-0.9,2.1-1.7,2.7c-0.8,0.6-1.8,1-2.8,1.2l2.2,6.5l-5-1.3l-1.9-5.6h-0.1l-1.9-0.5l-1.2,4.7l-4.3-1.2L127.3,156.9z
			 M132.4,166.3c0.7,0.2,1.3,0.2,1.9,0c0.5-0.3,0.8-0.6,1-1.2l0,0c0.2-0.6,0.1-1.2-0.3-1.6c-0.4-0.4-0.9-0.7-1.6-0.9l-2.8-0.8
			l-1,3.6L132.4,166.3z"/>
		<path class="st0" d="M143.3,161.2l4.3,1.2l-1.7,6.3l7.1-4.9l5.1,1.4l-7.7,5l3.7,10.5l-5.1-1.4l-2.3-6.8l-2,1.3l-1.1,4l-4.3-1.2
			L143.3,161.2z"/>
		<path class="st0" d="M161.3,183.1c-1.4-0.4-2.7-1-3.8-1.7c-1.2-0.7-2-1.7-2.8-2.8l3.2-2.2c1.2,1.7,2.7,2.7,4.5,3.3
			c0.6,0.2,1.1,0.2,1.4,0.1c0.4-0.1,0.6-0.4,0.7-0.6l0,0c0-0.2,0.1-0.4,0-0.4c0-0.2-0.2-0.3-0.4-0.4c-0.2-0.2-0.4-0.4-0.7-0.5
			c-0.3-0.2-0.7-0.4-1.2-0.7c-0.8-0.4-1.5-0.8-2.1-1.2c-0.6-0.4-1.2-0.9-1.6-1.4c-0.4-0.5-0.7-1.1-0.9-1.7c-0.2-0.6-0.1-1.3,0.1-2.1
			l0,0c0.2-0.7,0.5-1.3,1-1.9s1-1,1.6-1.2s1.4-0.4,2.2-0.5s1.7,0.1,2.6,0.4c1.3,0.4,2.5,0.9,3.5,1.5c1,0.6,1.8,1.4,2.4,2.3l-3,2.5
			c-0.5-0.7-1.2-1.2-1.9-1.8c-0.7-0.4-1.3-0.8-2-1c-0.5-0.2-1-0.2-1.2,0c-0.4,0.1-0.5,0.4-0.6,0.6v0.1c-0.1,0.2-0.1,0.4,0,0.5
			c0.1,0.2,0.2,0.4,0.4,0.4c0.2,0.2,0.4,0.4,0.7,0.5c0.4,0.2,0.7,0.4,1.2,0.7c0.8,0.4,1.6,0.9,2.2,1.3c0.6,0.4,1.2,1,1.6,1.4
			s0.7,1.1,0.8,1.7s0.1,1.2-0.1,1.9v0.1c-0.2,0.8-0.5,1.5-1.1,2c-0.4,0.5-1.1,1-1.7,1.2c-0.7,0.3-1.4,0.4-2.2,0.4
			S162.2,183.4,161.3,183.1z"/>
		<path class="st0" d="M174,169.6l4.3,1.2l-1.6,5.8l5.5,1.5l1.6-5.8l4.3,1.2l-4.2,15.6l-4.3-1.2l1.6-5.9l-5.5-1.5l-1.6,5.9l-4.3-1.2
			L174,169.6z"/>
		<path class="st0" d="M194.3,192.1c-1.2-0.4-2.2-0.8-3.2-1.5c-0.9-0.7-1.6-1.5-2.2-2.5s-0.9-1.9-1.1-3c-0.2-1.1-0.1-2.2,0.2-3.3
			v-0.1c0.3-1.2,0.8-2.1,1.5-3s1.5-1.6,2.5-2.1c1-0.5,2-0.9,3.1-1c1.2-0.2,2.3-0.1,3.5,0.3c1.2,0.4,2.2,0.8,3.2,1.5
			c0.9,0.7,1.6,1.5,2.2,2.5c0.5,0.9,0.9,1.9,1.1,3c0.2,1.1,0.1,2.2-0.2,3.3v0.1c-0.3,1.2-0.8,2.1-1.5,3s-1.5,1.6-2.5,2.1
			c-1,0.5-2,0.9-3.1,1C196.7,192.6,195.6,192.5,194.3,192.1z M195.5,188.2c0.6,0.2,1.2,0.2,1.7,0.1c0.5-0.1,1.1-0.3,1.5-0.5
			c0.4-0.3,0.8-0.6,1.2-1.1s0.5-1,0.7-1.5l0,0c0.2-0.5,0.2-1.2,0.2-1.7c0-0.5-0.2-1.1-0.4-1.6c-0.3-0.4-0.6-0.9-1.1-1.2
			c-0.4-0.4-1-0.6-1.5-0.8s-1.2-0.2-1.7-0.1c-0.5,0.1-1.1,0.3-1.5,0.5s-0.8,0.6-1.2,1.1s-0.5,1-0.7,1.5l0,0
			c-0.2,0.5-0.2,1.2-0.2,1.7c0,0.5,0.2,1.1,0.4,1.6c0.3,0.4,0.6,0.9,1,1.2C194.3,187.9,194.9,188.2,195.5,188.2z"/>
		<path class="st0" d="M209.3,179.2l6.6,1.8c1,0.3,1.9,0.6,2.6,1.1c0.7,0.4,1.3,1,1.8,1.6c0.4,0.6,0.7,1.3,0.8,2
			c0.1,0.8,0.1,1.6-0.2,2.4l0,0c-0.3,0.9-0.6,1.7-1.2,2.3c-0.5,0.6-1.2,1.1-1.9,1.4c-0.7,0.4-1.5,0.4-2.4,0.5s-1.8-0.1-2.7-0.4
			l-2.1-0.6l-1.2,4.4l-4.3-1.2L209.3,179.2z M213.5,188.7c0.8,0.2,1.4,0.2,1.9-0.1s0.9-0.7,1.1-1.3v-0.1c0.2-0.7,0.1-1.2-0.3-1.7
			c-0.4-0.4-0.9-0.8-1.7-1.1l-2-0.5l-1.2,4.2L213.5,188.7z"/>
		<path class="st0" d="M226,200.7c-1.4-0.4-2.7-1-3.8-1.7c-1.2-0.8-2-1.7-2.8-2.8l3.2-2.2c1.2,1.7,2.7,2.7,4.5,3.3
			c0.6,0.2,1.1,0.2,1.4,0.1c0.4-0.1,0.6-0.4,0.7-0.7l0,0c0-0.2,0.1-0.4,0-0.4c0-0.2-0.2-0.3-0.4-0.4s-0.4-0.4-0.7-0.5
			s-0.7-0.4-1.2-0.7c-0.8-0.4-1.5-0.8-2.1-1.2s-1.2-0.9-1.6-1.4s-0.7-1.1-0.9-1.7c-0.2-0.6-0.1-1.3,0.1-2.1l0,0
			c0.2-0.7,0.5-1.3,1-1.9c0.4-0.5,1-1,1.6-1.2c0.6-0.3,1.3-0.4,2.2-0.5c0.9-0.1,1.7,0.1,2.6,0.4c1.3,0.4,2.5,0.9,3.5,1.5
			s1.8,1.4,2.4,2.3l-3,2.5c-0.5-0.7-1.2-1.2-1.9-1.8c-0.7-0.4-1.3-0.8-2-1c-0.5-0.2-1-0.2-1.2,0c-0.3,0.2-0.5,0.4-0.6,0.6l0,0
			c-0.1,0.2-0.1,0.4,0,0.5c0.1,0.2,0.2,0.4,0.4,0.4c0.2,0.2,0.4,0.4,0.7,0.5c0.4,0.2,0.7,0.4,1.2,0.7c0.8,0.4,1.6,0.9,2.2,1.3
			c0.6,0.4,1.2,1,1.6,1.4c0.4,0.5,0.7,1.1,0.8,1.7c0.1,0.6,0.1,1.2-0.1,1.9l0,0c-0.2,0.8-0.5,1.5-1.1,2c-0.4,0.5-1.1,1-1.7,1.2
			c-0.7,0.3-1.4,0.4-2.2,0.4C227.9,201.1,227,201,226,200.7z"/>
	</g>
	<path class="st1" d="M154.2,126.6c0.4-3.1-0.3-6.3-1.8-9.1c-2-3.6-5.2-6.2-9.2-7.3c-8.1-2.3-16.6,2.4-18.9,10.5
		c-1.1,3.9-0.6,8.1,1.3,11.6c2,3.6,5.2,6.2,9.2,7.3c1.8,0.5,3.6,0.7,5.4,0.5l-8.1-11.6L154.2,126.6z"/>
	<path class="st1" d="M152.9,131.2l-12.7,1.1l4.7,6.7c0.5-0.2,1-0.5,1.5-0.7C149.3,136.6,151.6,134.2,152.9,131.2z"/>
	<path class="st1" d="M157.8,130.7c-1.5,4.9-4.8,8.9-9.3,11.4c-0.4,0.2-0.7,0.4-1.1,0.6l7.8,11.3l11.3-24L157.8,130.7z"/>
	<path class="st1" d="M176.8,45.1L86,136.7l63.4,16.7l-6.4-9.2c-1.3,0.3-2.7,0.4-4,0.4c-1.8,0-3.7-0.3-5.5-0.8
		c-5.1-1.4-9.3-4.8-11.8-9.4s-3.2-9.9-1.7-15c3-10.5,14-16.6,24.4-13.6c5.1,1.4,9.3,4.8,11.8,9.4c1.9,3.4,2.7,7.1,2.4,10.9l15.2-1.3
		l-6.8,14.6c8.1-8.6,19.7-13.6,31.9-13.1L176.8,45.1z"/>
	<path class="st0" d="M158.7,126.2c0.3-3.8-0.6-7.5-2.4-10.9c-2.6-4.6-6.8-8-11.8-9.4c-10.5-3-21.4,3.1-24.4,13.6
		c-1.5,5.1-0.8,10.4,1.7,15s6.8,8,11.8,9.4c1.8,0.5,3.6,0.8,5.5,0.8c1.4,0,2.7-0.2,4-0.4l6.4,9.2l8.2,2.2c1.9-6.2,5.2-11.7,9.4-16.2
		l6.8-14.6L158.7,126.2z M134.8,139.6c-3.9-1.1-7.2-3.7-9.2-7.3c-2-3.6-2.5-7.7-1.3-11.6c2.3-8.1,10.8-12.8,18.9-10.5
		c3.9,1.1,7.2,3.7,9.2,7.3c1.6,2.8,2.2,6,1.8,9.1l-22.1,1.9l8.1,11.6C138.4,140.3,136.6,140.1,134.8,139.6z M144.9,139l-4.7-6.7
		l12.7-1.1c-1.3,3-3.6,5.5-6.5,7.1C145.9,138.5,145.4,138.8,144.9,139z M155.3,154l-7.8-11.3c0.4-0.2,0.7-0.4,1.1-0.6
		c4.5-2.5,7.7-6.5,9.3-11.4l8.8-0.8L155.3,154z"/>
	<polygon class="st0" points="163,99.1 196.4,65.4 208.8,111.1 	"/>
</g>
</svg>
